<?xml version="1.0" encoding="utf-8"?>
<!-- Generator: Adobe Illustrator 27.5.0, SVG Export Plug-In . SVG Version: 6.00 Build 0)  -->
<svg version="1.1" xmlns="http://www.w3.org/2000/svg" xmlns:xlink="http://www.w3.org/1999/xlink" x="0px" y="0px"
	 viewBox="0 0 500 500" style="enable-background:new 0 0 500 500;" xml:space="preserve">
<g id="Background_Simple">
	<g>
		<path style="fill:#FFE6DE;" d="M244.296,466.145c-36.648,7.804-95.664,3.929-129.392-15.061s-61.168-55.55-74.631-99.436
			c-11.065-36.068-12.778-76.267-7.252-114.363C44.761,156.363,90.429,84.841,150.067,53.979
			c40.446-20.931,85.309-23.68,128.823-19.639c48.342,4.49,98.283,18.245,135.947,57.277
			c32.754,33.943,53.616,86.005,56.038,139.843c2.422,53.838-13.633,108.619-43.127,147.146
			c-23.277,30.407-53.882,50.31-85.633,63.011C310.365,454.319,277.243,460.257,244.296,466.145"/>
		<g>
			<g>
				<path style="fill:#FFFFFF;" d="M101.643,285.392l-12.797-17.039c0,0-24.347-0.602-32.281-3.618l7.477,19.434
					C64.042,284.169,91.638,288.973,101.643,285.392z"/>
				<g>
					<path style="fill:#FFE6DE;" d="M101.121,285.697c-3.729-4.965-7.458-9.93-11.188-14.896c-0.537-0.715-1.073-1.429-1.61-2.143
						c0.174,0.1,0.348,0.199,0.521,0.299c-8.391-0.21-16.867-0.689-25.168-1.967c-2.448-0.377-4.944-0.804-7.273-1.673
						c0.248-0.247,0.495-0.495,0.743-0.742c2.176,5.655,4.351,11.31,6.527,16.964c0.317,0.823,0.633,1.647,0.95,2.47
						c-0.14-0.141-0.281-0.281-0.422-0.422c9.38,1.629,19.103,2.797,28.631,2.492c2.898-0.093,5.892-0.305,8.649-1.269
						c0.735-0.257,1.051,0.909,0.321,1.164c-4.646,1.624-9.988,1.458-14.833,1.28c-5.441-0.201-10.868-0.761-16.263-1.481
						c-1.738-0.232-3.474-0.482-5.207-0.756c-0.69-0.109-1.651-0.049-2.042-0.69c-0.491-0.805-0.734-1.909-1.071-2.785
						c-0.788-2.048-1.576-4.097-2.364-6.145c-1.347-3.5-2.693-7.001-4.04-10.501c-0.16-0.415,0.33-0.896,0.743-0.742
						c4.274,1.595,9.072,2,13.576,2.452c4.812,0.483,9.643,0.787,14.474,0.997c1.236,0.054,2.473,0.083,3.708,0.137
						c0.628,0.028,0.862,0.281,1.227,0.766c2.163,2.88,4.326,5.759,6.488,8.639c1.989,2.648,3.977,5.296,5.966,7.943
						C102.631,285.708,101.583,286.311,101.121,285.697z"/>
				</g>
			</g>
			<g>
				<path style="fill:#FFE6DE;" d="M68.371,281.293c-1.582-3.693-3.164-7.385-4.746-11.078c-0.303-0.706,0.737-1.322,1.042-0.609
					c1.582,3.693,3.164,7.386,4.746,11.078C69.716,281.39,68.676,282.006,68.371,281.293L68.371,281.293z"/>
			</g>
			<g>
				<path style="fill:#FFE6DE;" d="M72.54,281.375c-1.858-3.36-3.544-6.812-5.053-10.343c-0.302-0.707,0.738-1.322,1.043-0.609
					c1.509,3.531,3.195,6.982,5.053,10.343C73.958,281.446,72.916,282.056,72.54,281.375L72.54,281.375z"/>
			</g>
			<g>
				<path style="fill:#FFE6DE;" d="M77.522,281.733c-2.269-3.526-4.253-7.225-5.936-11.065c-0.309-0.705,0.731-1.32,1.043-0.609
					c1.683,3.84,3.667,7.539,5.936,11.065C78.986,281.779,77.941,282.385,77.522,281.733L77.522,281.733z"/>
			</g>
			<g>
				<path style="fill:#FFE6DE;" d="M82.367,282.392c-2.417-3.836-4.605-7.811-6.554-11.904c-0.332-0.698,0.708-1.311,1.042-0.609
					c1.949,4.094,4.138,8.068,6.555,11.904C83.825,282.442,82.781,283.048,82.367,282.392L82.367,282.392z"/>
			</g>
			<g>
				<path style="fill:#FFE6DE;" d="M87.028,282.763c-2.371-3.515-4.467-7.206-6.272-11.042c-0.329-0.699,0.711-1.313,1.042-0.609
					c1.805,3.836,3.901,7.527,6.272,11.042C88.507,282.8,87.461,283.405,87.028,282.763L87.028,282.763z"/>
			</g>
			<g>
				<path style="fill:#FFE6DE;" d="M91.668,282.298c-2.725-3.221-5.124-6.704-7.147-10.407c-0.373-0.682,0.669-1.292,1.042-0.609
					c1.973,3.612,4.299,7.02,6.958,10.163C93.021,282.035,92.171,282.893,91.668,282.298L91.668,282.298z"/>
			</g>
		</g>
		<g>
			<g>
				<path style="fill:#FFFFFF;" d="M78.694,307.923l-17.837,1.494c0,0-11.301,17.051-16.99,21.348l17.165,3.36
					C61.032,334.126,76.774,316.64,78.694,307.923z"/>
				<g>
					<path style="fill:#FFE6DE;" d="M78.694,308.527c-5.946,0.498-11.891,0.996-17.837,1.494c0.174-0.1,0.347-0.199,0.521-0.299
						c-3.921,5.912-8.07,11.772-12.723,17.132c-1.377,1.586-2.813,3.151-4.484,4.433c-0.048-0.368-0.096-0.736-0.144-1.103
						c5.722,1.12,11.443,2.24,17.165,3.36c-0.196,0.052-0.391,0.103-0.587,0.155c5.332-5.927,10.486-12.293,14.519-19.182
						c1.238-2.115,2.436-4.349,2.988-6.755c0.174-0.757,1.338-0.436,1.164,0.321c-0.919,4.004-3.381,7.699-5.654,11.049
						c-2.567,3.783-5.385,7.397-8.302,10.916c-0.967,1.167-1.947,2.322-2.943,3.464c-0.422,0.483-0.817,1.202-1.505,1.196
						c-0.792-0.007-1.691-0.331-2.464-0.482c-1.803-0.353-3.607-0.706-5.41-1.059c-3.097-0.606-6.193-1.212-9.29-1.819
						c-0.57-0.112-0.512-0.821-0.144-1.103c3.056-2.344,5.501-5.644,7.842-8.662c2.497-3.22,4.873-6.536,7.184-9.893
						c0.543-0.788,1.044-1.621,1.62-2.384c0.353-0.467,0.662-0.493,1.22-0.539c3.021-0.253,6.043-0.506,9.064-0.759
						c2.734-0.229,5.468-0.458,8.202-0.687C79.469,307.255,79.464,308.463,78.694,308.527z"/>
				</g>
			</g>
			<g>
				<path style="fill:#FFE6DE;" d="M60.775,329.838c-3.334-0.524-6.667-1.047-10.001-1.571c-0.765-0.12-0.44-1.284,0.321-1.164
					c3.334,0.524,6.667,1.047,10.001,1.571C61.861,328.794,61.536,329.957,60.775,329.838L60.775,329.838z"/>
			</g>
			<g>
				<path style="fill:#FFE6DE;" d="M62.856,326.93c-3.274-0.182-6.536-0.534-9.775-1.046c-0.765-0.121-0.44-1.284,0.321-1.164
					c3.133,0.495,6.288,0.826,9.454,1.003C63.628,325.766,63.633,326.973,62.856,326.93L62.856,326.93z"/>
			</g>
			<g>
				<path style="fill:#FFE6DE;" d="M65.335,323.546c-3.577,0.039-7.145-0.215-10.683-0.741c-0.766-0.114-0.44-1.277,0.321-1.164
					c3.43,0.509,6.896,0.735,10.362,0.697C66.112,322.33,66.113,323.537,65.335,323.546L65.335,323.546z"/>
			</g>
			<g>
				<path style="fill:#FFE6DE;" d="M67.968,320.393c-3.809,0.005-7.613-0.213-11.396-0.654c-0.763-0.089-0.772-1.297,0-1.207
					c3.783,0.441,7.587,0.659,11.396,0.654C68.745,319.185,68.746,320.392,67.968,320.393L67.968,320.393z"/>
			</g>
			<g>
				<path style="fill:#FFE6DE;" d="M70.314,317.243c-3.56,0.116-7.121-0.041-10.656-0.47c-0.762-0.092-0.771-1.301,0-1.207
					c3.536,0.428,7.096,0.585,10.656,0.47C71.091,316.01,71.09,317.218,70.314,317.243L70.314,317.243z"/>
			</g>
			<g>
				<path style="fill:#FFE6DE;" d="M72.087,313.726c-3.522,0.5-7.075,0.659-10.627,0.445c-0.772-0.046-0.777-1.254,0-1.207
					c3.438,0.207,6.894,0.082,10.306-0.402C72.526,312.454,72.854,313.617,72.087,313.726L72.087,313.726z"/>
			</g>
		</g>
		<path style="fill:#FFFFFF;" d="M143.399,275.844c-2.131-1.937-2.408-5.639-0.59-7.884c1.818-2.245,5.431-2.663,7.695-0.89
			c-0.485-2.742,0.879-5.725,3.25-7.104c2.371-1.38,5.579-1.058,7.642,0.766c2.063,1.824,2.833,5.021,1.835,7.614
			c1.28-0.297,2.655-0.382,3.876,0.109c1.221,0.491,2.241,1.664,2.266,3.003c0.024,1.286-0.735,3.969-1.827,4.611L143.399,275.844z"
			/>
		<path style="fill:#FFFFFF;" d="M318.583,330.416c-5.806-5.279-6.561-15.366-1.608-21.484c4.954-6.118,14.799-7.258,20.968-2.426
			c-1.323-7.472,2.395-15.599,8.856-19.359c6.461-3.759,15.204-2.883,20.825,2.088c5.621,4.971,7.721,13.681,5,20.748
			c3.487-0.809,7.234-1.042,10.561,0.296c3.327,1.339,6.107,4.533,6.174,8.184c0.064,3.504-2.003,10.816-4.978,12.563
			L318.583,330.416z"/>
		<g>
			<path style="fill:#FFFFFF;" d="M59.913,395.423c12.304-3.258,24.609-6.517,36.913-9.775c18.717-4.957,37.434-9.913,56.152-14.87
				c2.56-0.678,5.12-1.356,7.68-2.034c0.663-0.175,1.327-0.389,1.998-0.529c0.37-0.077,0.692-0.344,0.318-0.013
				c0.663-0.587,1.187-1.507,1.732-2.199c1.435-1.822,2.87-3.643,4.305-5.465c11.232-14.257,22.465-28.515,33.697-42.772
				c11.853-15.045,23.706-30.091,35.559-45.136c2.881-3.657,5.762-7.314,8.643-10.971c0.91-1.155,2.207-1.49,3.546-2.094
				c11.508-5.183,23.019-10.361,34.532-15.534c18.633-8.373,37.271-16.735,55.918-25.077c18.201-8.143,36.408-16.274,54.644-24.34
				c10.372-4.587,20.699-9.392,31.249-13.563c0.514-0.203,1.307-0.674,1.89-0.545c0.758,0.167,0.438,1.332-0.321,1.164
				c0.409,0.09,0.054,0.031-0.277,0.172c-0.439,0.188-0.897,0.342-1.34,0.52c-1.598,0.642-3.182,1.319-4.766,1.995
				c-5.525,2.36-11.026,4.777-16.526,7.196c-17.209,7.571-34.378,15.231-51.544,22.899c-19.143,8.552-38.275,17.128-57.401,25.717
				c-13.644,6.127-27.285,12.26-40.923,18.4c-1.658,0.747-3.316,1.493-4.974,2.24c-0.736,0.331-1.644,0.595-2.319,1.044
				c-0.21,0.14,0.167-0.157-0.095,0.099c-0.297,0.289-0.537,0.681-0.793,1.007c-1.186,1.506-2.372,3.012-3.559,4.517
				c-10.625,13.487-21.25,26.973-31.875,40.46c-12.209,15.498-24.418,30.995-36.628,46.493c-3.398,4.313-6.796,8.626-10.194,12.94
				c-0.464,0.589-0.939,1.488-1.609,1.859c-0.806,0.446-2.062,0.546-2.944,0.78c-16.356,4.331-32.712,8.662-49.068,12.994
				c-16.183,4.285-32.365,8.571-48.548,12.856c-0.918,0.243-1.836,0.486-2.754,0.729C59.482,396.786,59.162,395.622,59.913,395.423
				L59.913,395.423z"/>
		</g>
		
			<ellipse transform="matrix(0.9701 -0.2427 0.2427 0.9701 -31.2337 108.6801)" style="fill:#FFFFFF;" cx="425.415" cy="181.089" rx="9.712" ry="9.712"/>
		
			<ellipse transform="matrix(0.973 -0.2307 0.2307 0.973 -52.7158 64.9376)" style="fill:#FFFFFF;" cx="251.311" cy="257.878" rx="9.712" ry="9.712"/>
		<path style="fill:#FFFFFF;" d="M102.94,148.035c-3.915-3.56-4.424-10.362-1.084-14.488c3.341-4.126,9.979-4.894,14.139-1.636
			c-0.892-5.039,1.615-10.519,5.972-13.054c4.357-2.535,10.252-1.944,14.043,1.408c3.791,3.352,5.206,9.225,3.372,13.991
			c2.351-0.546,4.878-0.703,7.121,0.2c2.243,0.903,4.118,3.057,4.163,5.518c0.044,2.363-1.351,7.294-3.357,8.472L102.94,148.035z"/>
		<path style="fill:#FFFFFF;" d="M291.509,218.941c-2.858-2.599-3.23-7.564-0.791-10.576c2.439-3.012,7.285-3.573,10.322-1.194
			c-0.651-3.678,1.179-7.679,4.359-9.53c3.181-1.851,7.484-1.419,10.251,1.028c2.767,2.447,3.801,6.735,2.461,10.213
			c1.716-0.398,3.561-0.513,5.199,0.146c1.638,0.659,3.006,2.232,3.039,4.029c0.032,1.725-0.986,5.325-2.451,6.184L291.509,218.941z
			"/>
		<path style="fill:#FFFFFF;" d="M377.317,173.48c-2.164-1.967-2.445-5.726-0.599-8.006c1.846-2.28,5.515-2.705,7.814-0.904
			c-0.493-2.785,0.893-5.813,3.3-7.214c2.408-1.401,5.666-1.074,7.761,0.778c2.095,1.852,2.877,5.098,1.863,7.732
			c1.299-0.302,2.696-0.388,3.935,0.11c1.24,0.499,2.276,1.689,2.301,3.05c0.024,1.306-0.746,4.031-1.855,4.682L377.317,173.48z"/>
		<path style="fill:#FFFFFF;" d="M350.326,248.044c-2.164-1.967-2.445-5.726-0.599-8.006c1.846-2.28,5.515-2.705,7.814-0.904
			c-0.493-2.785,0.893-5.813,3.3-7.214c2.408-1.401,5.666-1.074,7.761,0.778c2.095,1.852,2.877,5.098,1.863,7.732
			c1.299-0.302,2.696-0.388,3.935,0.11c1.24,0.499,2.276,1.689,2.301,3.05c0.024,1.306-0.747,4.031-1.855,4.682L350.326,248.044z"/>
		<path style="fill:#FFFFFF;" d="M189.499,70.186c-2.131-1.937-2.408-5.639-0.59-7.884c1.818-2.245,5.431-2.663,7.695-0.89
			c-0.486-2.742,0.879-5.725,3.25-7.104c2.371-1.38,5.579-1.058,7.642,0.766c2.063,1.824,2.833,5.021,1.835,7.614
			c1.28-0.297,2.655-0.382,3.876,0.109c1.221,0.491,2.241,1.664,2.265,3.003c0.024,1.286-0.735,3.969-1.827,4.611L189.499,70.186z"
			/>
		<path style="fill:#FFFFFF;" d="M289.169,141.654c-5.294-4.813-5.983-14.011-1.466-19.589c4.517-5.578,13.493-6.617,19.118-2.212
			c-1.206-6.813,2.184-14.223,8.075-17.651c5.891-3.428,13.862-2.629,18.988,1.903c5.126,4.532,7.04,12.474,4.559,18.917
			c3.179-0.738,6.596-0.95,9.629,0.27c3.033,1.221,5.568,4.133,5.629,7.462c0.059,3.195-1.827,9.862-4.539,11.455L289.169,141.654z"
			/>
		<g>
			<path style="fill:#FFFFFF;" d="M75.496,203.459c0,0,23.863,12.905,24.175,15.075s-8.448,10.772-10.849,11.429
				c-2.071,0.567-22.317-12.435-24.499-14.605C63.692,214.729,74.274,202.835,75.496,203.459z"/>
			<path style="fill:#FFFFFF;" d="M99.671,218.534c0,0,0.972,0.903,0.109,2.921c-0.863,2.018-9.352,10.426-10.605,10.527
				c-1.254,0.101-23.397-13.563-24.14-14.279c-0.992-0.956-0.711-2.345-0.711-2.345L99.671,218.534z"/>
			<path style="fill:#FFE6DE;" d="M89.222,228.829c2.353-0.781,9.519-8.194,9.744-10.014c-1.101-1.539-12.904-8.989-22.998-14.022
				c-0.28-0.14-0.616-0.121-0.868,0.065c-2.205,1.631-7.952,8.05-9.083,10.005C70.006,218.325,87.436,228.748,89.222,228.829z"/>
			<path style="fill:#FFFFFF;" d="M72.45,206.476c0,0,0.736,0.707,0.738,1.406c0.002,0.699-3.402,4.258-3.828,4.321
				c-0.426,0.063-1.726-0.107-1.726-0.107S70.674,207.148,72.45,206.476z"/>
			<g>
				<path style="fill:#FFE6DE;" d="M71.595,221.447c-1.011-0.665-2.023-1.329-3.034-1.994c-0.163-0.107-0.232-0.32-0.13-0.495
					c0.095-0.162,0.331-0.238,0.495-0.13c1.011,0.665,2.023,1.329,3.034,1.994c0.163,0.107,0.232,0.32,0.13,0.496
					C71.996,221.479,71.76,221.555,71.595,221.447L71.595,221.447z"/>
			</g>
			<g>
				<path style="fill:#FFE6DE;" d="M67.469,218.536c-0.031-0.032-0.062-0.063-0.093-0.095c-0.035-0.033-0.06-0.072-0.075-0.117
					c-0.023-0.043-0.033-0.09-0.031-0.139c-0.002-0.05,0.008-0.096,0.031-0.14c0.015-0.045,0.04-0.084,0.075-0.117
					c0.024-0.019,0.049-0.038,0.073-0.057c0.057-0.033,0.117-0.049,0.183-0.049c0.032,0.004,0.064,0.009,0.096,0.013
					c0.061,0.017,0.115,0.048,0.16,0.093c0.031,0.032,0.062,0.063,0.093,0.095c0.035,0.033,0.06,0.072,0.075,0.117
					c0.023,0.043,0.033,0.09,0.031,0.139c0.002,0.05-0.008,0.096-0.031,0.14c-0.015,0.045-0.04,0.084-0.075,0.117
					c-0.024,0.019-0.049,0.038-0.073,0.057c-0.057,0.033-0.117,0.049-0.183,0.049c-0.032-0.004-0.064-0.009-0.096-0.013
					C67.567,218.612,67.514,218.581,67.469,218.536L67.469,218.536z"/>
			</g>
			<g>
				<path style="fill:#FFFFFF;" d="M88.853,216.963c-3.928,0.52-7.856,1.041-11.784,1.561c-0.768,0.102-0.76-1.107,0-1.207
					c3.928-0.52,7.856-1.041,11.784-1.561C89.621,215.654,89.613,216.862,88.853,216.963L88.853,216.963z"/>
			</g>
			<g>
				<path style="fill:#FFFFFF;" d="M82.694,214.952c-1.312,0.164-2.624,0.327-3.936,0.491c-0.315,0.039-0.617-0.306-0.604-0.604
					c0.016-0.361,0.267-0.562,0.604-0.604c1.312-0.164,2.624-0.327,3.936-0.491c0.314-0.039,0.617,0.306,0.604,0.604
					C83.282,214.709,83.031,214.91,82.694,214.952L82.694,214.952z"/>
			</g>
		</g>
		
			<ellipse transform="matrix(0.7071 -0.7071 0.7071 0.7071 -212.3082 222.0314)" style="fill:#FFFFFF;" cx="161.862" cy="367.294" rx="9.712" ry="9.712"/>
	</g>
</g>
<g id="Speech_Bubble">
	<g>
		<g>
			<g>
				<path style="fill:#A0D2F4;" d="M287.587,47.639c5.513,0.704,10.444,3.928,14.461,8.847c4.909,6.01,7.118,14.468,4.845,21.887
					c-2.274,7.42-8.62,13.298-16.024,15.623c-7.302,2.292-16.811,0.625-22.708-5.161c0,0-8.988,3.745-9.911,1.805
					c-0.711-0.836,3.609-6.493,5.678-8.311l0.049,0.059c-3.656-6.738-5.218-15.78,0.69-24.767
					C269.081,50.908,277.539,46.355,287.587,47.639z"/>
			</g>
		</g>
		<g>
			<path style="fill:#FFFFFF;" d="M299.478,69.438c-4.175-2.733-8.62-5.184-13.187-7.179c-0.367-0.16-0.82-0.049-1.11,0.228
				c-0.432,0.413-0.223,0.973,0.004,1.428c0.67,1.341,1.522,2.589,2.514,3.714c-4.597-0.43-17.99-1.329-18.307-0.442
				c-0.262,0.732-0.152,5.872,0.931,6.47c0.832,0.46,12.343-0.073,17.623-0.344c-0.811,1.139-1.487,2.374-2,3.674
				c-0.187,0.473-0.346,1.05,0.122,1.424c0.314,0.251,0.765,0.296,1.129,0.128c4.711-2.17,7.455-4.376,11.652-7.001
				C300.325,70.614,299.989,69.772,299.478,69.438z"/>
		</g>
	</g>
</g>
<g id="Document">
	<g>
		<g>
			<path style="fill:#FFFFFF;" d="M144.792,231.373l-21.299,0.654c0,0-14.509,19.56-21.543,24.311l20.195,5.076
				C122.145,261.413,141.961,241.615,144.792,231.373z"/>
			<g>
				<path style="fill:#421B36;" d="M144.792,231.977c-6.207,0.19-12.413,0.381-18.62,0.572c-0.893,0.027-1.786,0.055-2.679,0.082
					c0.174-0.1,0.347-0.199,0.521-0.299c-5.04,6.791-10.342,13.514-16.224,19.596c-1.712,1.771-3.496,3.535-5.535,4.931
					c-0.048-0.368-0.096-0.736-0.144-1.103c5.876,1.477,11.752,2.954,17.629,4.43c0.855,0.215,1.711,0.43,2.567,0.645
					c-0.196,0.052-0.392,0.103-0.587,0.155c6.734-6.733,13.3-14.005,18.537-21.972c1.591-2.421,3.157-4.995,3.955-7.802
					c0.212-0.746,1.378-0.429,1.164,0.321c-1.348,4.74-4.539,9.001-7.48,12.866c-3.283,4.316-6.84,8.42-10.517,12.403
					c-1.203,1.304-2.421,2.594-3.657,3.867c-0.446,0.46-1.034,1.367-1.74,1.325c-0.938-0.056-1.987-0.5-2.894-0.727
					c-2.129-0.535-4.257-1.07-6.385-1.605c-3.637-0.914-7.275-1.828-10.912-2.743c-0.535-0.134-0.553-0.823-0.144-1.103
					c3.75-2.567,6.833-6.277,9.785-9.685c3.172-3.661,6.208-7.442,9.164-11.278c0.738-0.957,1.45-1.936,2.195-2.886
					c0.401-0.512,0.738-0.544,1.362-0.563c3.61-0.111,7.221-0.222,10.831-0.333c3.27-0.1,6.54-0.201,9.81-0.301
					C145.57,230.746,145.569,231.953,144.792,231.977z"/>
			</g>
		</g>
		<g>
			<path style="fill:#421B36;" d="M122.176,256.198c-3.93-0.832-7.86-1.665-11.791-2.497c-0.76-0.161-0.438-1.325,0.321-1.164
				c3.93,0.832,7.86,1.665,11.791,2.497C123.257,255.195,122.935,256.359,122.176,256.198L122.176,256.198z"/>
		</g>
		<g>
			<path style="fill:#421B36;" d="M124.804,252.858c-3.871-0.422-7.718-1.035-11.526-1.844c-0.759-0.161-0.438-1.326,0.321-1.164
				c3.703,0.787,7.442,1.391,11.205,1.801C125.568,251.734,125.576,252.943,124.804,252.858L124.804,252.858z"/>
		</g>
		<g>
			<path style="fill:#421B36;" d="M127.965,248.991c-4.242-0.178-8.464-0.694-12.626-1.539c-0.761-0.154-0.439-1.318,0.321-1.164
				c4.058,0.824,8.168,1.322,12.305,1.496C128.739,247.816,128.743,249.024,127.965,248.991L127.965,248.991z"/>
		</g>
		<g>
			<path style="fill:#421B36;" d="M131.293,245.408c-4.582-0.236-9.145-0.745-13.667-1.516c-0.764-0.13-0.44-1.294,0.321-1.164
				c4.417,0.753,8.872,1.243,13.347,1.473C132.066,244.241,132.071,245.449,131.293,245.408L131.293,245.408z"/>
		</g>
		<g>
			<path style="fill:#421B36;" d="M134.281,241.811c-4.293-0.087-8.57-0.509-12.8-1.251c-0.764-0.134-0.44-1.297,0.321-1.164
				c4.123,0.723,8.293,1.122,12.479,1.208C135.056,240.62,135.059,241.827,134.281,241.811L134.281,241.811z"/>
		</g>
		<g>
			<path style="fill:#421B36;" d="M136.417,237.757c-4.153,0.367-8.327,0.315-12.47-0.155c-0.763-0.087-0.772-1.295,0-1.207
				c4.142,0.47,8.317,0.522,12.47,0.155C137.191,236.481,137.187,237.689,136.417,237.757L136.417,237.757z"/>
		</g>
	</g>
</g>
<g id="Lines">
	<g>
		<path style="fill:#421B36;" d="M250.017,339.786c-18.417-7.648-39.863-7.339-56.7,4.198
			c-15.103,10.35-24.878,28.084-27.793,45.928c-0.077,0.474-0.728,0.692-1.105,0.45c-18.802-12.058-48.257-7.361-59.639,12.597
			c-0.427,0.749-1.585,0.075-1.157-0.676c10.504-18.417,34.78-24.013,53.954-16.985c1.885,0.691,3.7,1.954,5.581,2.538
			c1.708,0.53,0.882,0.814,1.409-1.151c0.503-1.873,0.838-3.787,1.378-5.656c1.875-6.492,4.669-12.74,8.203-18.498
			c6.965-11.348,16.832-20.688,29.348-25.543c15.009-5.823,32.481-5.391,46.846,2.029
			C250.757,339.231,250.462,339.971,250.017,339.786L250.017,339.786z"/>
	</g>
	<g>
		<path style="fill:#421B36;" d="M257.278,315.2c-5.661-4.757-10.908-9.831-17.258-13.714c0.337-0.193,0.674-0.387,1.011-0.58
			c-0.015,8.399,2.565,16.082,7.673,22.75c0.359,0.469-0.137,1.083-0.632,1.101c-7.045,0.259-14.09,0.518-21.135,0.766
			c0.07-0.52,0.141-1.039,0.211-1.559c7.133,2.69,14.305,5.291,21.408,8.061c0.999,0.39,0.582,2.013-0.45,1.633
			c-7.156-2.637-14.253-5.446-21.379-8.164c-0.812-0.31-0.728-1.529,0.211-1.559c7.045-0.222,14.09-0.432,21.135-0.643
			c-0.211,0.367-0.421,0.734-0.632,1.101c-5.223-6.854-7.883-14.873-7.753-23.489c0.008-0.494,0.57-0.858,1.011-0.58
			c6.337,3.993,11.855,9.035,17.041,14.413C258.035,315.046,257.595,315.467,257.278,315.2L257.278,315.2z"/>
	</g>
</g>
<g id="Hills">
	<g>
		<path style="fill:#8380FF;" d="M390.804,90.885c8.038-1.157,14.472-9.327,21.714-14.298c14.812-10.167,34.296-5.555,45.049,10.663
			l-10.021,41.45c-0.829-8.773-11.141-19.451-16.228-17.684c-5.088,1.767-8.403,2.213-13.343,4.654
			c-10.473,5.175-22.524,3.909-32.004-3.363c-9.48-7.272-17.739-24.171-15.5-28.602C370.291,81.396,382.207,92.122,390.804,90.885z"
			/>
		<g>
			<path style="fill:#421B36;" d="M428.808,230.781c2.949-19.897,6.473-39.711,10.206-59.474
				c4.171-22.076,8.643-44.104,13.698-65.995c2.377-10.296,4.877-20.571,7.728-30.747c0.209-0.747,1.374-0.43,1.164,0.321
				c-5.422,19.355-9.739,39.028-13.859,58.695c-4.608,21.994-8.831,44.073-12.681,66.212c-1.812,10.417-3.541,20.85-5.092,31.31
				C429.859,231.868,428.695,231.543,428.808,230.781L428.808,230.781z"/>
		</g>
		<g>
			<path style="fill:#421B36;" d="M446.549,127.653c-1.262-3.127-2.611-6.249-4.405-9.114c-1.572-2.511-3.629-5.068-6.473-6.173
				c-3.745-1.455-7.637,0.367-10.983,2.016c-3.317,1.635-6.638,3.148-10.222,4.111c-6.997,1.879-14.538,1.863-21.345-0.765
				c-5.552-2.143-10.331-5.897-14.04-10.523c-4.553-5.678-7.494-12.499-8.764-19.65c-0.135-0.76,1.028-1.086,1.164-0.321
				c2.221,12.514,10.033,24.919,22.358,29.48c7.21,2.669,15.113,2.356,22.362,0.005c3.714-1.204,7.048-3.143,10.626-4.658
				c3.032-1.284,6.361-2.045,9.514-0.718c2.825,1.19,4.919,3.619,6.558,6.134c2,3.069,3.449,6.469,4.815,9.855
				C448.003,128.053,446.836,128.366,446.549,127.653L446.549,127.653z"/>
		</g>
		<path style="fill:#A0D2F4;" d="M423.969,87.253c0,0,4.889-18.086,3.609-19.059c-1.294-0.985-13.849,14.387-13.893,14.747
			c-7.849-2.745-19.35-7.637-20.532-6.059c-0.516,2.06,6.401,9.12,12.052,14.766c0,0-12.999,14.358-11.032,15.876
			c1.919,1.481,20.303-4.67,19.846-5.685c-0.313,0.04,5.953,17.432,8.465,17.039c1.088-0.17,2.496-18.607,2.496-18.607
			s17.683-2.818,17.867-4.603C442.88,94.176,431.36,89.71,423.969,87.253z"/>
		<g>
			<path style="fill:#421B36;" d="M406.573,125.189c-0.635,2.276-4.063,16.593-7.946,14.022c-1.351-0.894-2.135-4.745-2.5-6.051
				c-0.702-2.519-1.261-5.12-1.62-7.712c0.032,0.232,1.284-0.365,0.425,0.452c-0.443,0.421-0.914,0.814-1.374,1.216
				c-1.807,1.583-3.644,3.132-5.523,4.629c-2.357,1.878-13.576,11.364-12.42,2.931c0.518-3.777,1.631-7.506,2.767-11.135
				c0.37-1.182,0.629-2.863,1.304-3.934c0.581-0.923,1.203-0.165,0.589-0.105c-3.786,0.369-7.545,0.886-11.363,0.704
				c-2.279-0.109-6.501-0.234-6.326-3.366c0.23-4.112,7.429-7.521,11.004-7.391c0.744,0.027,0.747,1.186,0,1.159
				c-3.301-0.12-6.398,1.951-8.434,4.356c-3.211,3.794,1.663,4.041,4.546,4.107c3.563,0.082,7.175-0.241,10.701-0.747
				c0.391-0.056,0.882,0.249,0.713,0.713c-1.339,3.669-2.497,7.423-3.418,11.218c-0.418,1.72-2.318,6.576,0.078,6.773
				c1.022,0.084,2.921-1.404,3.762-1.94c4.685-2.987,8.976-6.727,13.08-10.464c0.287-0.261,0.901-0.205,0.969,0.256
				c0.31,2.114,0.72,4.22,1.224,6.296c0.368,1.515,0.905,5.102,2.029,6.178c1.249,1.196,1.328,0.675,2.331-0.787
				c2.221-3.237,3.235-7.923,4.284-11.687C405.655,124.164,406.774,124.468,406.573,125.189L406.573,125.189z"/>
		</g>
	</g>
	<g>
		<path style="fill:#A0D2F4;" d="M83.083,444.953c16.145,1.331,26.269,5.839,36.24,20.401c5.87-26.271,21.11-63.047,49.131-68.491
			c24.781-4.814,47.643,40.391,47.643,40.391s18.151-107.929,73.281-97.85c34.548,6.316,55.415,63.672,55.415,63.672
			s22.823-178.553,84.977-173.083c67.2,5.914,52.806,238.093,52.806,238.093H124.983h-9.973H36.431
			C39.36,460.34,60.587,443.098,83.083,444.953z"/>
		<g>
			<path style="fill:none;" d="M385.027,402.184c19.262,0.845,38.513,1.931,57.748,3.263c0.048,12.984-0.156,25.968-0.618,38.944
				c-17.826-0.804-35.66-1.409-53.499-1.802c-1.54-0.034-3.08-0.051-4.62-0.082c0.082-3.319,0.163-6.638,0.244-9.957
				C384.53,422.428,384.779,412.306,385.027,402.184z"/>
			<path style="fill:none;" d="M319.016,400.258c-0.363,4.314-0.703,8.631-0.997,12.95c-0.653,9.595-1.13,19.2-1.443,28.811
				c-4.76,0.024-9.52,0.042-14.28,0.09c-16.469,0.167-32.937,0.49-49.401,0.935c1.566-14.342,3.519-28.641,5.855-42.878
				C278.837,399.932,298.928,399.961,319.016,400.258z"/>
			<path style="fill:none;" d="M385.056,400.989c0.332-13.507,0.663-27.014,0.995-40.521c18.551,0.46,37.097,1.129,55.634,1.995
				c0.524,11.126,0.87,22.261,1.019,33.399c0.038,2.798,0.049,5.596,0.062,8.394c-16.577-1.15-33.165-2.139-49.764-2.925
				C390.354,401.206,387.705,401.105,385.056,400.989z"/>
			<path style="fill:none;" d="M386.08,359.276c0.098-3.998,0.196-7.996,0.294-11.994c0.204-8.297,0.407-16.594,0.611-24.891
				c17.419,0.629,34.828,1.489,52.225,2.571c1.029,12.082,1.837,24.182,2.422,36.294c-15.332-0.717-30.669-1.306-46.011-1.744
				C392.441,359.422,389.261,359.355,386.08,359.276z"/>
			<path style="fill:#FFFFFF;" d="M152.721,403.882c0.636-0.461,1.28-0.906,1.935-1.331c10.468-0.602,20.941-1.121,31.417-1.579
				c0.571,0.355,1.137,0.727,1.699,1.115c-6.849,0.294-13.697,0.615-20.544,0.97C162.392,403.309,157.557,403.6,152.721,403.882z"/>
			<path style="fill:#FFFFFF;" d="M138.778,468.086h1.205c0.015-1.327,0.032-2.653,0.059-3.979
				c0.102-4.903,0.311-9.804,0.583-14.701c16.905-1.105,33.82-2.043,50.741-2.852c-0.277,7.173-0.373,14.353-0.287,21.531h1.213
				c-0.06-4.967-0.058-9.934,0.057-14.901c0.052-2.23,0.135-4.459,0.222-6.687c11.153-0.528,22.307-1.012,33.465-1.415
				c8.502-0.307,17.006-0.566,25.511-0.8c-0.851,7.922-1.577,15.858-2.194,23.802h1.198c0.499-6.432,1.072-12.858,1.725-19.276
				c0.155-1.52,0.326-3.038,0.489-4.557c20.073-0.544,40.151-0.897,60.23-1.025c1.182-0.008,2.364-0.003,3.546-0.009
				c-0.258,8.286-0.396,16.576-0.402,24.867h1.21c0.005-7.404,0.102-14.808,0.308-22.21c0.025-0.887,0.061-1.773,0.089-2.66
				c21.685-0.102,43.372,0.049,65.053,0.475c-0.2,8.132-0.399,16.263-0.599,24.395h1.207c0.199-8.123,0.399-16.246,0.598-24.368
				c5.022,0.101,10.044,0.198,15.066,0.33c14.349,0.376,28.695,0.887,43.035,1.533c-0.277,7.506-0.634,15.008-1.081,22.505h1.201
				c0.446-7.478,0.81-14.96,1.085-22.446c12.738,0.581,25.472,1.264,38.197,2.085c0.777,0.05,0.772-1.158,0-1.207
				c-3.28-0.212-6.561-0.416-9.842-0.611c-9.434-0.561-18.873-1.032-28.314-1.463c0.086-2.424,0.181-4.848,0.249-7.273
				c0.298-10.542,0.413-21.089,0.374-31.635c12.483,0.872,24.961,1.839,37.428,2.915c0.775,0.067,0.768-1.141,0-1.207
				c-12.468-1.076-24.946-2.028-37.43-2.901c-0.023-4.794-0.069-9.589-0.162-14.382c-0.177-9.152-0.496-18.302-0.926-27.445
				c12.882,0.608,25.76,1.312,38.632,2.116c0.777,0.048,0.772-1.159,0-1.207c-12.891-0.805-25.789-1.498-38.691-2.108
				c-0.302-6.252-0.646-12.503-1.066-18.748c-0.393-5.849-0.856-11.693-1.354-17.534c12.497,0.785,24.988,1.679,37.469,2.696
				c0.776,0.063,0.769-1.145,0-1.207c-12.515-1.02-25.04-1.913-37.572-2.7c-0.814-9.421-1.746-18.832-2.83-28.226
				c-1.789-15.499-3.947-30.955-6.467-46.351c-0.125-0.766-1.289-0.439-1.164,0.321c2.858,17.462,5.248,35,7.159,52.591
				c0.781,7.187,1.473,14.383,2.096,21.586c-13.81-0.859-27.627-1.581-41.452-2.153c-3.544-0.147-7.089-0.265-10.633-0.392
				c0.484-19.727,0.969-39.455,1.453-59.182c0.019-0.779-1.188-0.775-1.207,0c-0.394,16.058-0.788,32.116-1.183,48.174
				c-0.09,3.654-0.179,7.309-0.269,10.964c-7.87-0.279-15.74-0.528-23.612-0.714c-0.118,0.407-0.235,0.813-0.352,1.219
				c7.979,0.188,15.958,0.413,23.935,0.696c-0.302,12.298-0.604,24.596-0.906,36.894c-10.739-0.261-21.48-0.456-32.222-0.58
				c-0.086,0.402-0.172,0.804-0.256,1.203c10.817,0.124,21.634,0.31,32.448,0.573c-0.286,11.671-0.573,23.343-0.859,35.014
				c-0.045,1.827-0.09,3.654-0.135,5.481c-12.854-0.557-25.713-1.005-38.576-1.343c-0.063,0.434-0.119,0.83-0.169,1.187
				c12.909,0.339,25.814,0.786,38.715,1.346c-0.33,13.453-0.66,26.906-0.991,40.359c-21.678-0.427-43.361-0.576-65.042-0.475
				c0.455-13.93,1.255-27.849,2.422-41.738c1.397,0.021,2.794,0.03,4.192,0.054c6.496,0.111,12.992,0.251,19.487,0.419
				c-0.146-0.362-0.309-0.764-0.489-1.2c-7.694-0.196-15.388-0.357-23.083-0.475c0.753-8.806,1.644-17.601,2.682-26.378
				c0.312-2.641,0.644-5.279,0.982-7.917c-0.339-0.452-0.681-0.902-1.028-1.351c-1.538,11.846-2.816,23.724-3.834,35.625
				c-20.056-0.297-40.115-0.333-60.171-0.1c1.075-6.489,2.221-12.966,3.455-19.427c1.224-6.408,2.535-12.798,3.915-19.173
				c17.875-0.403,35.754-0.614,53.634-0.639c-0.347-0.41-0.699-0.816-1.052-1.22c-17.44,0.031-34.879,0.251-52.315,0.642
				c1.353-6.204,2.781-12.391,4.281-18.561c-0.46,0.151-0.914,0.316-1.366,0.485c-0.658,2.716-1.308,5.433-1.937,8.156
				c-0.764,3.31-1.501,6.626-2.224,9.945c-6.329,0.145-12.656,0.314-18.984,0.506c-0.312,0.409-0.617,0.828-0.923,1.245
				c6.548-0.202,13.097-0.379,19.646-0.53c-2.764,12.798-5.215,25.663-7.35,38.581c-7.303,0.089-14.606,0.204-21.908,0.363
				c-3.229,0.07-6.457,0.169-9.685,0.253c-0.141,0.401-0.28,0.8-0.417,1.199c10.6-0.278,21.202-0.463,31.805-0.592
				c-0.992,6.064-1.92,12.139-2.773,18.224c-1.151,8.208-2.169,16.434-3.067,24.673c-12.116,0.332-24.23,0.722-36.341,1.202
				c-7.578,0.301-15.154,0.634-22.73,0.992c0.51-12.198,1.553-24.372,3.106-36.482c-0.357-0.355-0.717-0.707-1.081-1.055
				c-0.679,5.211-1.273,10.432-1.761,15.664c-0.681,7.297-1.153,14.612-1.457,21.933c-16.919,0.807-33.83,1.773-50.731,2.878
				c0.718-12.33,1.964-24.628,3.748-36.849c-0.489,0.537-0.97,1.087-1.445,1.645c-0.917,6.478-1.701,12.975-2.321,19.487
				c-0.501,5.258-0.887,10.525-1.192,15.797c-3.374,0.222-6.75,0.43-10.124,0.664c-1.863,0.129-3.725,0.276-5.588,0.409
				c-0.137,0.412-0.27,0.822-0.403,1.233c5.346-0.383,10.692-0.761,16.04-1.113C139.06,455.68,138.848,461.882,138.778,468.086z
				 M441.633,361.256c-15.332-0.717-30.669-1.306-46.011-1.744c-3.18-0.091-6.361-0.158-9.541-0.236
				c0.098-3.998,0.196-7.996,0.294-11.994c0.204-8.297,0.407-16.594,0.611-24.891c17.419,0.629,34.828,1.489,52.225,2.571
				C440.24,337.044,441.047,349.145,441.633,361.256z M442.766,404.256c-16.577-1.15-33.165-2.139-49.764-2.925
				c-2.648-0.125-5.297-0.226-7.946-0.342c0.332-13.507,0.663-27.014,0.995-40.521c18.551,0.46,37.097,1.129,55.634,1.995
				c0.524,11.126,0.87,22.261,1.019,33.399C442.741,398.659,442.752,401.458,442.766,404.256z M384.037,442.507
				c0.082-3.319,0.163-6.638,0.244-9.957c0.249-10.122,0.497-20.244,0.745-30.367c19.262,0.845,38.513,1.931,57.748,3.263
				c0.048,12.984-0.156,25.968-0.618,38.944c-17.826-0.804-35.66-1.409-53.499-1.802
				C387.117,442.556,385.577,442.538,384.037,442.507z M252.894,443.044c1.566-14.342,3.519-28.641,5.855-42.878
				c20.088-0.235,40.179-0.206,60.267,0.091c-0.363,4.314-0.703,8.631-0.997,12.95c-0.653,9.595-1.13,19.2-1.443,28.811
				c-4.76,0.024-9.52,0.042-14.28,0.09C285.826,442.276,269.358,442.599,252.894,443.044z"/>
			<path style="fill:#FFFFFF;" d="M74.226,454.569c-5.774,0.522-11.547,1.053-17.317,1.616c-3.272,0.32-6.544,0.646-9.815,0.979
				c-0.278,0.028-0.451-0.112-0.528-0.304c0.432-0.329,0.875-0.656,1.329-0.981c8.815-0.893,17.637-1.723,26.461-2.521
				c0.327-2.779,0.685-5.554,1.083-8.324c0.416-0.04,0.832-0.083,1.25-0.112c-0.402,2.771-0.767,5.546-1.097,8.327
				c9.665-0.869,19.335-1.689,29.009-2.449c0.582,0.34,1.155,0.702,1.723,1.078c-10.297,0.802-20.59,1.653-30.877,2.578
				c-0.394,3.437-0.754,6.877-1.037,10.325c-0.09,1.101-0.169,2.204-0.248,3.306h-1.201
				C73.285,463.572,73.714,459.066,74.226,454.569z"/>
		</g>
		<path style="fill:#8380FF;" d="M295.955,365.257c-6.729,0.51-13.159-3.908-17.753-9.761c-4.104,5.69-9.365,10.199-15.208,13.035
			c-3.467,1.683-7.298,2.788-10.956,1.833c-3.54-0.923-6.813-4.193-7.371-8.408c11-15.402,25.643-26.039,44.713-22.553
			c6.98,1.276,13.4,4.636,19.204,9.185c0.087,1.317-0.022,2.645-0.379,3.934l0.782-2.471
			C309.213,358.044,302.684,364.747,295.955,365.257z"/>
		<path style="fill:#8380FF;" d="M452.724,303.138c-7.401-3.61-13.015-10.883-18.372-17.935
			c-4.926,8.72-10.046,17.673-17.427,23.464c-7.381,5.79-17.677,7.676-24.962,1.716c-9.207-7.533-9.759-23.134-9.376-36.393
			c-1.359,1.945-2.997,3.154-4.626,3.559c12.86-27.944,30.562-50.548,52.482-48.619c22.058,1.941,34.167,24.246,44.607,71.487
			C470.113,306.813,459.625,306.505,452.724,303.138z"/>
		<g>
			<path style="fill:#421B36;" d="M36.669,466.916c1.508-3.823,4.664-6.957,7.785-9.514c4.864-3.985,10.512-6.973,16.43-9.06
				c7.746-2.732,16.017-3.853,24.214-3.545c6.442,0.242,12.957,1.259,18.697,4.342c6.765,3.634,11.739,9.704,16.05,15.911
				c-0.368,0.048-0.736,0.096-1.103,0.144c2.745-12.128,6.446-24.136,11.873-35.35c5.229-10.804,12.34-21.403,22.581-28.028
				c4.634-2.998,10.114-5.306,15.649-5.827c4.659-0.439,9.287,0.817,13.442,2.863c9.303,4.582,16.709,12.702,22.945,20.8
				c4.195,5.448,8.136,11.227,11.387,17.298c-0.368,0.048-0.736,0.096-1.103,0.144c1.3-8.139,3.301-16.211,5.52-24.14
				c4.428-15.822,10.205-31.593,18.82-45.65c7.995-13.045,19.543-25.842,35.329-28.602c19.722-3.448,36.329,9.417,47.821,24.1
				c9.236,11.8,16.636,25.374,22.037,39.35c0.098,0.254,0.197,0.508,0.291,0.764c-0.395,0.053-0.79,0.107-1.186,0.16
				c0.756-6.03,1.726-12.039,2.736-18.031c2.414-14.314,5.288-28.555,8.687-42.668c4.178-17.348,9.121-34.567,15.54-51.228
				c5.809-15.079,12.786-30.206,22.968-42.878c7.779-9.682,18.313-18.277,31.217-18.961c1.492-0.079,2.985-0.045,4.474,0.079
				c0.769,0.064,0.775,1.272,0,1.207c-12.863-1.072-23.857,6.074-32.126,15.325c-10.615,11.874-17.8,26.726-23.722,41.375
				c-6.595,16.315-11.65,33.24-15.931,50.296c-3.631,14.468-6.682,29.083-9.255,43.775c-0.846,4.833-1.64,9.675-2.367,14.527
				c-0.34,2.265-0.464,4.722-0.976,6.891c-0.022,0.093-0.025,0.195-0.037,0.291c-0.084,0.668-0.94,0.829-1.186,0.16
				c-4.313-11.733-10.449-23.105-17.498-33.394c-10.708-15.63-26.353-31.427-46.779-30.457
				c-16.081,0.764-28.408,12.484-36.877,25.21c-9.062,13.617-15.066,29.194-19.699,44.806c-1.785,6.016-3.354,12.096-4.706,18.224
				c-0.68,3.08-1.027,6.328-1.86,9.366c-0.037,0.136-0.048,0.284-0.07,0.423c-0.083,0.519-0.872,0.575-1.103,0.144
				c-2.483-4.638-5.408-9.078-8.462-13.354c-5.826-8.158-12.601-16.185-21.027-21.761c-4.035-2.671-8.607-4.811-13.48-5.252
				c-5.364-0.485-10.873,1.322-15.576,3.781c-10.62,5.554-18.125,15.62-23.619,26.009c-6.379,12.064-10.503,25.261-13.507,38.532
				c-0.123,0.544-0.826,0.543-1.103,0.144c-3.814-5.491-8.145-10.885-13.882-14.47c-5.294-3.307-11.405-4.651-17.571-5.068
				c-14.065-0.952-28.707,2.302-40.202,10.711c-3.62,2.648-7.622,6.116-9.314,10.405C37.551,467.951,36.383,467.64,36.669,466.916
				L36.669,466.916z"/>
		</g>
		<g>
			<path style="fill:#421B36;" d="M345.062,401.63c4.24,16.861,6.144,34.124,6.603,51.482c0.135,5.103,0.161,10.209,0.13,15.313
				c-0.005,0.777-1.212,0.778-1.207,0c0.106-17.328-0.542-34.692-3.547-51.79c-0.867-4.932-1.921-9.828-3.142-14.685
				C343.709,401.197,344.873,400.876,345.062,401.63L345.062,401.63z"/>
		</g>
		<path style="opacity:0.3;fill:#421B36;" d="M347.116,407.371c-0.019,0.833-0.238,1.477-1.01,1.793
			c-0.037-0.014-0.075-0.027-0.113-0.04c-0.211-1.163-0.371-2.023-0.466-2.523C345.914,406.398,346.238,406.624,347.116,407.371z
			 M382.599,461.807c-0.075-0.752-0.166-1.517-0.248-2.275c-0.518-0.045-1.082-0.091-1.238,0.507
			c-0.225,0.653-0.717,0.94-0.054,1.411C381.581,462.102,382.169,462.109,382.599,461.807z M368.314,440.065
			c-1.799,0.048-1.762,2.119-0.059,2.423C369.688,442.495,369.961,439.889,368.314,440.065z M366.052,400.506
			c0.714-1.048,1.115-1.461-0.389-1.588c-0.08-1.286-0.966-0.629-1.589-0.125C363.566,400.353,364.682,400.918,366.052,400.506z
			 M361.187,399.392c-0.666-1.71-2.293-1.652-2.786,0.149C359.007,401.14,360.42,400.634,361.187,399.392z M377.488,427.895
			c-0.107-0.557-0.21-1.122-0.317-1.675c-0.383,0-0.795,0-1.295,0c-0.215,0.406-0.462,0.873-0.726,1.373
			c0.204,0.387,0.361,0.683,0.547,1.034C376.569,428.843,377.221,428.475,377.488,427.895z M352.536,368.416
			c-0.29-0.307-0.581-0.601-0.872-0.886c-0.044,0.03-0.084,0.057-0.128,0.087l-0.237,2.537
			C352.101,370.17,352.908,369.317,352.536,368.416z M379.71,464.351c0.67-0.813,0.67-0.813,0.892-1.837
			c-0.636-0.697-1.463-0.397-2.307-0.44C378.504,463.513,377.309,464.642,379.71,464.351z M355.375,371.78
			c-0.326-0.425-0.652-0.839-0.98-1.239c-0.304,0-0.602,0-0.919,0C351.33,372.828,355.149,373.282,355.375,371.78z M376.826,434.187
			c0.238-0.264,0.488-0.541,0.78-0.868C377.914,429.382,372.839,433.163,376.826,434.187z M361.234,408.355
			c1.114,1.093,3.327-0.439,2.132-1.67C362.383,405.891,360.899,407.13,361.234,408.355z M355.607,431.267
			c1.006,0.057,3.22-0.595,2.593-1.692C356.568,427.814,355.772,429.624,355.607,431.267z M355.337,465.481
			c-0.73-0.398-1.389-0.507-2.138-0.33c-0.694,1.392,0.507,2.854,1.953,2.072C355.672,466.734,354.876,466.107,355.337,465.481z
			 M357.086,375.539c0.252-0.115,0.501-0.209,0.714-0.345c-0.403-0.609-0.809-1.205-1.217-1.781
			C355.621,373.819,355.046,375.202,357.086,375.539z M346.255,401.303l-0.382,2.218C347.059,403.6,347.59,401.95,346.255,401.303z
			 M358.485,405.397c0.976,1.41,2.77,0.599,2.41-1.072c-0.651-0.206-1.532-1.13-2-0.282
			C358.733,404.491,358.21,404.888,358.485,405.397z M363.714,452.849c-0.007-0.512-0.532-0.827-0.339-1.339
			c-0.379-0.539-1.356-0.437-1.893,0.035c-0.093,0.379-0.176,0.71-0.265,1.074C361.762,454.076,362.747,453.68,363.714,452.849z
			 M352.36,379.736c-0.387-2.074-2.479-0.253-2.205,1.166C351.131,381.881,352.723,381.073,352.36,379.736z M358.056,462.423
			c-1.125-0.518-2.597,0.19-2.383,1.587C357.085,465.066,358.477,464.278,358.056,462.423z M361.257,391.504
			c0.255,0.758,0.912,0.727,1.413,0.943C365.443,391.297,361.751,388.163,361.257,391.504z M358.293,391.251
			c-0.167-0.53-0.503-0.836-0.836-1.285C354.058,390.319,356.865,394.507,358.293,391.251z M371.034,428.601
			c0.43-0.329,0.818-0.627,1.255-0.963c-0.302-0.74-0.812-1.26-1.475-1.726C369.091,426.459,369.401,428.097,371.034,428.601z
			 M368.187,428.8c-2.311,0.344-0.721,3.437,0.668,2.341C369.448,430.264,369.586,429.151,368.187,428.8z M350.061,396.692
			c0.639,0.74,1.737,1.834,2.571,0.395c-0.335-0.586-0.424-1.273-0.866-1.695C351.029,395.511,350.169,395.491,350.061,396.692z
			 M367.921,401.119c-1.315,0.571-1.596,1.948-0.073,2.5C369.418,403.171,370.014,401.614,367.921,401.119z M350.031,385.448
			c0.296,0.418,0.556,0.786,0.819,1.159c0.711,0.09,0.711,0.09,1.701-0.503c0.053-0.722,0.207-1.336-0.712-1.471
			C350.89,384.109,350.289,384.514,350.031,385.448z M372.521,429.649c0.284,0.441,0.358,0.914,0.299,1.462
			c2.114,1.166,2.708-1.895,0.686-2.411C373.222,428.972,372.905,429.277,372.521,429.649z M347.678,393.049l-0.204,1.183
			c0.253,0.782,1.19,1.155,2.069,0.486c0.545-0.282,0.028-0.842-0.076-1.187C349.693,392.571,348.326,392.59,347.678,393.049z
			 M366.501,421.746c0.132-0.887-1.148-1.95-1.776-1.077c-0.342,0.694-0.878,1.339-0.069,1.891
			C365.239,423.223,366.656,422.73,366.501,421.746z M369.283,463.623c-0.529-3.64-4.587,0.738-0.994,0.892
			C368.77,464.326,369.104,464.091,369.283,463.623z M367.009,468.307l1.904-0.021c-0.161-0.295-0.412-0.423-1.132-0.629
			C367.39,467.854,367.152,468.077,367.009,468.307z M372.31,452.634c0.713,0.612,2.628,1.336,2.463-0.144
			c-0.475-0.44-0.054-0.913-0.232-1.384C373.642,450.573,372.466,451.702,372.31,452.634z M360.909,415.687
			c-1.915-2.747-3.144,2.266-0.76,1.77C360.832,417.105,361.058,416.455,360.909,415.687z M357.844,458.911
			c0.418-1.241,0.241-2.498-1.369-2.168c-0.229,0.701-1.002,1.207-0.34,1.817C356.65,459.281,356.951,459.429,357.844,458.911z
			 M351.481,414.72c2.134-0.922,1.374-2.664-0.808-2.207C349.899,413.295,350.41,414.603,351.481,414.72z M352.272,457.07
			c-0.084-0.017-0.165-0.048-0.247-0.078c0.03,0.618,0.057,1.232,0.081,1.84c0.191-0.337,0.288-0.51,0.444-0.899
			C352.468,457.681,352.376,457.395,352.272,457.07z M358.362,402.569c-0.752-1.76-1.772-2.428-2.715-0.292
			c0.1,0.267,0.206,0.544,0.323,0.857C356.813,403.174,357.656,403.371,358.362,402.569z M369.215,435.355
			c-0.273-0.44-0.501-0.962-1.171-1.048c-0.502,0.391-1.789,0.872-1.088,1.675c0.312,0.473,1.06,1.441,1.536,0.656
			C368.652,436.144,369.39,435.914,369.215,435.355z M363.956,393.715c0.111,0.435,0.213,0.831,0.311,1.207
			c0.731,0.305,1.341-0.26,2.124-0.063C366.922,392.877,365.329,392.303,363.956,393.715z M355.396,427.063
			c-0.34-0.414-0.627-0.763-0.959-1.169c-0.89,0.198-1.81,1.663-1.098,2.432C354.298,428.797,355.331,428.16,355.396,427.063z
			 M352.853,460.685c0.318,0.574,1.033,0.685,1.608,1.087c0.429-0.092,0.84-0.329,1.093-0.796
			C355.435,459.134,353.381,458.955,352.853,460.685z M358.65,388.403c0.151,0.307,0.304,0.616,0.462,0.937
			c2.366,1.339,2.422-3.184-0.131-1.89C358.854,387.818,358.754,388.103,358.65,388.403z M347.075,396.544l-0.111,0.646
			C347.066,397.008,347.11,396.791,347.075,396.544z M350.04,388.79c-0.194-0.829-0.352-1.195-0.872-1.784
			c-0.175-0.005-0.321,0.016-0.457,0.046l-0.439,2.546C348.991,389.6,349.422,389.063,350.04,388.79z M351.666,451.282
			c0.053,0.704,0.103,1.405,0.149,2.102C352.685,453.126,353.003,451.862,351.666,451.282z M365.159,448.297
			c-0.792,0.382-0.606,1.106-1.082,1.742C366.017,452.018,367.847,448.469,365.159,448.297z M381.968,456.057
			c-0.078-0.647-0.17-1.303-0.253-1.952C380.288,454.391,380.343,455.533,381.968,456.057z M374.561,414.282
			c-0.176-0.658-0.359-1.324-0.552-2.004c-0.142-0.056-0.298-0.11-0.482-0.158C371.572,412.841,372.979,415.142,374.561,414.282z
			 M363.969,438.387c0.248,0.3,0.484,0.585,0.729,0.881c1.33,0.172,1.993,0.25,1.737-1.486c-0.374-0.249-0.719-0.48-1.032-0.688
			C364.569,437.172,364.381,437.863,363.969,438.387z M369.706,460.067c0.262,0.578,0.722,0.979,0.463,1.543
			c1.171,0.376,1.291,0.334,2.072-0.658c-0.33-1.069-0.33-1.069-1.72-1.681C370.25,459.537,369.983,459.797,369.706,460.067z
			 M362.291,423.133c-0.764,0.557-1.147,1.821-0.587,2.424C363.92,426.207,364.351,423.895,362.291,423.133z M362.624,401.16
			c-0.981,0.134-1.009,0.934-1.359,1.483c0.315,0.487,0.725,0.803,1.28,0.958C364.164,403.232,364.023,401.759,362.624,401.16z
			 M376.053,422.776c0.132-0.022,0.281-0.047,0.418-0.069c-0.149-0.742-0.297-1.495-0.447-2.228
			c-0.211,0.102-0.422,0.292-0.621,0.594C375.656,421.599,375.313,422.349,376.053,422.776z M361.233,418.894
			c0.318,0.811,0.584,1.054,1.401,1.383c0.778-0.426,1.041-1.159,1.072-2.096C362.54,417.588,361.896,417.942,361.233,418.894z
			 M369.561,438.549c0.767,1.538,2.746,1.457,2.442-0.464C370.861,437.239,370.112,436.873,369.561,438.549z M379.109,436.787
			c-0.125-0.726-0.255-1.447-0.384-2.17c-0.443,0.308-0.613,0.766-0.513,1.479C378.51,436.535,378.821,436.736,379.109,436.787z
			 M363.69,385.542c-0.126-0.252-0.25-0.507-0.377-0.757c-0.065-0.093-0.133-0.189-0.214-0.303c-0.67-0.154-2.349,0.101-1.686,0.997
			c0.044,0.055,0.159,0.091,0.159,0.136c-0.005,0.954,0.83,0.883,1.482,1.042C363.512,386.098,363.716,385.836,363.69,385.542z
			 M352.141,468.47l0.15-0.002c-0.01-0.033-0.02-0.061-0.03-0.095c-0.038-0.02-0.077-0.025-0.115-0.039
			C352.144,468.379,352.143,468.425,352.141,468.47z M358.133,396.53c-0.117-0.331-0.216-0.612-0.306-0.865
			C353.798,395.015,356.48,400.19,358.133,396.53z M349.57,382.066l-0.275,1.594C349.751,383.448,349.664,382.839,349.57,382.066z
			 M372.875,468.243l2.061-0.023C374.106,467.659,373.35,467.832,372.875,468.243z M359.003,409.44
			c-0.832,1.336-0.105,2.207,1.298,2.262C361.541,410.884,360.406,408.615,359.003,409.44z M356.101,468.427l1.666-0.018
			c-0.07-0.143-0.142-0.287-0.197-0.429C357.034,467.725,356.476,468.006,356.101,468.427z M372.979,456.892
			c-0.776,0.539-0.468,1.547,0.228,2.048C376.288,459.087,374.692,456.267,372.979,456.892z M350.63,440.394
			c0.064,0.572,0.127,1.145,0.189,1.72c0.651,0.321,1.589-0.057,1.999-0.905c-0.221-0.313-0.416-0.59-0.661-0.938
			C351.561,440.328,351.047,440.143,350.63,440.394z M356.933,409.158c1.572-0.416,1.478-2.477-0.191-2.657
			c-0.694,0.198-0.653,0.86-0.862,1.353C356.076,408.438,356.411,408.885,356.933,409.158z M376.707,453.763
			c-0.481,0.192-0.903,0.361-1.334,0.534c-0.132,0.722-0.097,1.379,0.526,1.934C377.404,456.272,378.16,454.6,376.707,453.763z
			 M352.27,462.647c-0.024-0.012-0.041-0.019-0.063-0.03c0.008,0.564,0.011,1.121,0.012,1.672
			C352.599,463.946,352.732,463.327,352.27,462.647z M373.358,420.078c0.852-0.157,1.903-0.61,1.313-1.623
			c-0.248-0.451-0.614-1.238-1.184-0.762C372.44,418.33,372.198,419.399,373.358,420.078z M360.657,467.216
			c0.065-0.757-0.074-1.803-0.592-2.327c-0.336,0.108-0.689,0.223-1.056,0.34c-0.12,0.348-0.23,0.666-0.372,1.078
			c0.245,0.389,0.524,0.83,0.767,1.215C359.938,467.709,360.297,467.53,360.657,467.216z M376.497,439.532
			c1.036-0.5,1.299-0.638,0.783-1.962C375.163,435.743,374.632,439.685,376.497,439.532z M366.655,412.682
			c0.166,0.517,0.709,0.757,0.798,1.348c0.128,0.438,0.382,0.552,0.775,0.454c1.735-0.295,1.017-1.855-0.074-2.511
			C367.373,412.585,367.373,412.585,366.655,412.682z M355.599,424.749c0.79,0.862,2.468,1.317,2.525-0.22
			C357.752,422.611,356.173,423.386,355.599,424.749z M369.79,442.978c-0.041,0.658-0.175,1.277,0.335,1.857
			c0.43,0.056,0.915,0.118,1.42,0.182C373.154,444.11,370.899,442.35,369.79,442.978z M359.297,381.655
			c-0.194,0.245-0.404,0.511-0.625,0.792c0.083,0.366,0.165,0.731,0.248,1.096c1.307,0.372,1.307,0.372,1.937,0.051
			C361.091,382.152,360.934,381.786,359.297,381.655z M367.369,408.625c0.49,0.115,0.894,0.21,1.345,0.317
			C371.105,406.576,365.644,405.56,367.369,408.625z M367.023,452.225c0.215,1.407,0.681,1.138,1.899,0.956
			c0.102-0.258,0.211-0.535,0.326-0.823c-0.097-1.061-1.158-1.668-2.024-0.86C367.035,451.714,366.949,451.926,367.023,452.225z
			 M350.913,374.277l-0.211,1.227c0.072,0.104,0.143,0.205,0.235,0.322c1.913-0.509,1.865-2.175,0.085-2.711L350.913,374.277z
			 M348.776,426.157c0.11,0.755,0.221,1.522,0.331,2.301c0.842-0.505,0.806-1.143,0.097-2.033
			C349.067,426.271,348.922,426.198,348.776,426.157z M366.47,454.865c-0.093-0.182-0.197-0.383-0.297-0.579
			c-0.519-0.152-0.984-0.476-1.552-0.276C362.872,455.958,365.688,457.305,366.47,454.865z M375.13,460.59
			c0.231,0.423,0.431,0.789,0.642,1.176c1.354,0.559,2.763-1.198,1.208-1.857c-0.459,0.159-0.799-0.164-1.208-0.267
			C375.563,459.95,375.373,460.232,375.13,460.59z M349.084,404.146c-1.598-0.583-2.277,1.882-0.653,2.233
			C349.751,405.835,350.236,405.304,349.084,404.146z M357.111,378.734c-0.429,0.292-0.867,0.591-1.345,0.917
			c-0.031,0.43,0.307,0.728,0.456,1.13c0.727,0.327,1.738,0.679,1.713-0.43C358.189,379.276,358.174,379.244,357.111,378.734z
			 M369.813,433.378c0.72,0.282,0.72,0.282,1.04,0.84C374.148,433.009,370.557,429.886,369.813,433.378z M361.144,438.507
			c-1.132-1.982-2.237-1.542-2.273,0.643C359.721,439.926,360.784,439.481,361.144,438.507z M351.272,425.872
			c0.374-0.196,0.678-0.355,1.026-0.538c0.047-0.475,0.096-0.96,0.153-1.524C350.439,422.794,349.433,424.731,351.272,425.872z
			 M352.494,391.406c0.344-1.667-1.935-1.961-1.982-0.391C350.251,392.563,352.54,392.742,352.494,391.406z M365.588,389.513
			c-0.314-0.684-0.632-1.363-0.954-2.038c-0.243,0.145-0.453,0.385-0.575,0.75C364.29,389.152,365.001,389.618,365.588,389.513z
			 M349.658,432.476c0.033,0.25,0.066,0.502,0.099,0.754c0.056-0.072,0.112-0.141,0.164-0.231
			C349.797,432.846,349.724,432.663,349.658,432.476z M362.685,464.801c0.379-0.633,0.707-1.182,1.066-1.782
			c-0.38-0.462-0.73-0.573-1.309-0.714c-0.479,0.131-0.951,0.339-1.237,0.884C361.391,463.927,361.87,464.41,362.685,464.801z
			 M361.652,468.366l1.669-0.018c-0.072-0.144-0.142-0.286-0.224-0.45C362.382,467.707,361.9,467.969,361.652,468.366z
			 M377.824,449.554c-0.343-0.73-0.953-1.02-1.878-1.015c-0.184,0.255-0.428,0.59-0.712,0.982c0.224,0.336,0.469,0.706,0.755,1.137
			C376.829,450.761,377.431,450.365,377.824,449.554z M353.636,392.811c-1.693,2.017,1.171,3.357,1.687,0.847
			C355.07,392.862,354.487,392.662,353.636,392.811z M355.35,383.272c-0.57-1.38-0.57-1.38-1.13-1.834
			C351.834,382.079,353.866,385.237,355.35,383.272z M361.511,412.995c-0.113,1.836,2.255,2.127,2.318,0.233
			c-0.16-0.229-0.334-0.476-0.526-0.75C362.661,412.496,361.974,412.235,361.511,412.995z M353.091,405.32
			c0.368,0.615,0.888,0.952,1.637,0.818c0.536-0.539,0.834-1.113,0.543-1.892C354.121,403.478,353.457,404.141,353.091,405.32z
			 M362.608,456.767c-1.865,0.202-1.01,1.479,0.073,2.213C364.141,458.527,364.376,456.917,362.608,456.767z M352.9,416.047
			c0.307,0.601,1.034,0.726,1.435,1.277c0.278-0.127,0.511-0.233,0.719-0.326C356.091,414.738,353.89,414.46,352.9,416.047z
			 M355.232,454.908c-0.315-1.428-2.024-1.087-2.254,0.229C353.245,456.755,355.283,456.374,355.232,454.908z M358.637,427.748
			c0.657,0.477,0.863,0.554,1.664,0.626c0.264-0.502,0.528-1.004,0.824-1.562C360.203,425.579,358.781,426.399,358.637,427.748z
			 M356.098,384.943c-0.139,1.539,1.019,2.437,2.245,1.104c0-0.333,0-0.671,0-1.056C357.57,385.144,356.375,383.852,356.098,384.943
			z M373.347,464.536c0.81,0.065,1.131-0.661,1.721-1.066c-0.343-0.498-0.82-0.736-1.32-1.105c-0.34,0.073-0.706,0.153-1.102,0.238
			c-0.11,0.191-0.221,0.388-0.319,0.562C372.675,463.97,372.675,463.97,373.347,464.536z M352.496,401.698
			c-0.663-0.617-1.282-0.281-1.885-0.015C349.787,404.319,353.434,403.929,352.496,401.698z M359.688,378.192
			c-0.287-0.479-0.577-0.949-0.868-1.413c-0.091,0.19-0.191,0.389-0.331,0.569C358.845,377.836,359.285,378.104,359.688,378.192z
			 M358.699,454.602c0,0.328,0,0.59,0,0.922C361.57,458.355,360.915,451.482,358.699,454.602z M374.879,446.438
			c-0.396-0.302-0.762-0.581-1.255-0.954C370.79,446.027,373.93,449.461,374.879,446.438z M370.083,400.375
			c-0.113-0.303-0.224-0.605-0.339-0.908c-0.026,0.21-0.008,0.427,0.091,0.639C369.913,400.219,369.997,400.303,370.083,400.375z
			 M358.672,393.36c0.241,1.615,1.017,2.479,2.23,0.784c-0.158-0.41-0.332-0.864-0.496-1.29
			C359.699,392.677,359.111,392.651,358.672,393.36z M366.496,466.837c-0.183-0.623-0.814-0.646-0.716-1.41
			c0.033-0.333-0.236-0.54-0.656-0.554C363.073,465.883,365.019,468.453,366.496,466.837z M351.183,445.685
			c0.076,0.793,0.15,1.585,0.219,2.377c0.373-0.067,0.804-0.389,1.209-1.121C352.385,446.246,351.955,445.804,351.183,445.685z
			 M373.397,434.246c-0.31,0.482-0.597,0.928-0.854,1.327c0.2,0.663,0.55,1.101,1.149,1.452c1.151-0.717,0.675-1.711,0.642-2.685
			C374.007,434.306,373.715,434.278,373.397,434.246z M367.795,425.61c0.366,0.059,0.809,0.151,1.206-0.244
			C369.293,422.071,364.953,423.562,367.795,425.61z M353.794,439.53c0.444-0.194,0.862-0.376,1.272-0.557
			C355.541,435.447,351.008,438.554,353.794,439.53z M356.626,436.787c1.816,0.05,1.942-1.975,0.102-2.241
			C355.958,434.788,355.378,436.93,356.626,436.787z M365.901,403.743c-1.47-0.186-2.276,2.162-0.786,2.412
			C366.28,406.13,366.729,404.413,365.901,403.743z M358.116,446.804c-0.153-0.555-0.462-0.975-0.979-1.311
			C354.637,445.797,356.62,449.603,358.116,446.804z M366.311,427.872c-0.029-0.574-0.054-1.062-0.079-1.583
			c-0.296-0.114-0.573-0.222-0.865-0.334c-0.368,0.186-0.731,0.371-1.082,0.549C363.788,427.791,365.323,428.666,366.311,427.872z
			 M351.9,434.48c-0.761,0.141-1.604,0.411-1.593,1.324C351.104,437.522,353.826,436.33,351.9,434.48z M374.529,425.325
			c1.065-1.586-1.465-2.496-1.978-1.162C372.8,425.22,373.414,426.02,374.529,425.325z M357.775,412.543
			c-1.807-1.297-2.697,2.621-0.342,1.896C357.828,413.803,358.53,413.293,357.775,412.543z M366.664,410.703
			c-0.188-0.349-0.35-0.649-0.502-0.931c-0.439-0.11-0.84-0.212-1.228-0.31c-1,0.691-1.008,0.837-0.129,1.983
			C365.804,411.526,365.89,411.494,366.664,410.703z M370.659,420.309c-0.757,0.326-0.574,1.001-0.89,1.383
			c0.196,0.627,0.797,0.735,1.244,1.166C373.308,421.91,371.517,421.363,370.659,420.309z M369.783,466.246
			c0.22,0.661,0.59,1.066,1.059,1.345c0.804-0.25,0.752-0.954,0.994-1.452C371.52,464.625,369.928,464.789,369.783,466.246z
			 M366.773,418.962c0.194,0.451,0.57,0.728,0.856,1.102c1.089-0.394,1.252-0.538,1.613-1.441c-0.188-0.205-0.391-0.428-0.624-0.685
			c-0.55,0.047-1.005,0.087-1.508,0.13C366.993,418.377,366.876,418.687,366.773,418.962z M373.725,442.033
			c0.563,0.328,1.553-0.624,0.839-1.03c-0.751-0.291,0.132-0.845-1.008-1.109c-0.766,0.53-1.059,1.351-1.662,2.141
			C372.631,442.155,373.03,441.664,373.725,442.033z M355.581,399.444c-0.124-0.225-0.215-0.39-0.3-0.543
			c-0.486-0.151-0.951-0.296-1.443-0.449C351.554,399.991,354.879,401.526,355.581,399.444z M367.341,447.894
			c0.656-0.109,1.294-0.172,1.841-0.537c0.233-0.932-0.305-1.411-1.379-1.672c-0.489,0.426-0.489,0.426-0.797,1.35
			C367.107,447.293,367.215,447.571,367.341,447.894z M361.07,449.752c-1.184-2.342-3.543-0.98-1.525,1.165
			C360.26,450.815,360.407,450.017,361.07,449.752z M370.568,456.254c0.414-0.209,0.807-0.409,1.204-0.609
			C372.502,452.493,367.966,454.499,370.568,456.254z M361.774,440.126c-0.565,0.653-0.078,1.205-0.053,1.835
			c0.491,0.016,0.912,0.251,1.398,0.082c0.162-0.334,0.325-0.668,0.483-0.99C363.102,439.755,362.861,439.834,361.774,440.126z
			 M378.08,445.969c-0.136,3.385,4.103,0.62,1.221-0.59C378.907,445.57,378.538,445.747,378.08,445.969z M358.976,459.795
			c-0.529,1.255-0.384,1.626,0.96,1.786C362.109,461.449,360.062,458.647,358.976,459.795z M349.353,409.613
			c-1.375-0.799-2.1,0.769-1.247,1.826C349.229,411.858,350.566,410.438,349.353,409.613z M367.474,458.724
			c0.38,0.083,0.781,0.17,1.179,0.257c1.094-0.98,0.378-1.791-0.741-2.196C366.829,457.296,366.755,457.626,367.474,458.724z
			 M379.956,441.896c-0.077-0.482-0.156-0.963-0.235-1.445c-1.225-0.407-2.523,0.528-1.216,1.662
			C378.947,442.247,379.544,442.14,379.956,441.896z M362.979,434.765c-0.521-0.813-1.557,0.25-1.26,1.031
			c-0.349,0.983,1.366,1.357,1.822,0.582C364.114,435.684,363.274,435.321,362.979,434.765z M353.614,378.301
			c1.17-0.03,1.665-0.489,1.704-1.686c-0.332-0.163-0.781-0.73-1.137-0.287c-0.081,0.087-0.267,0.104-0.407,0.107
			C352.616,376.401,353.019,377.876,353.614,378.301z M368.978,397.484c-0.214-0.543-0.432-1.085-0.652-1.628
			c-0.159-0.093-0.313-0.196-0.452-0.335c-0.233,0.489-0.374,0.723-0.868,0.874c-0.038,1.172,0.897,1.257,1.686,1.582
			C368.8,397.809,368.888,397.647,368.978,397.484z M369.723,449.582c0.475,0.554,0.813,0.892,1.37,1.371
			c0.543-0.394,0.769-0.869,1.129-1.439C371.477,448.351,370.75,448.308,369.723,449.582z M365.694,415.094
			c-0.598,0.022-0.601,0.016-1.181,0.429c-0.247,0.819-0.108,1.504,0.796,1.998C366.716,417.302,366.281,415.926,365.694,415.094z
			 M365.98,445.008c0.141-0.281,0.31-0.62,0.497-0.993c-0.102-0.227-0.208-0.467-0.34-0.761c-0.515-0.02-1.002-0.312-1.53-0.149
			c-0.726,0.548-0.013,0.987-0.098,1.686C364.954,444.941,365.37,445.277,365.98,445.008z M355.269,449.595
			c-0.564-0.259-0.525-0.953-1.05-1.128c-0.446-0.024-1.088,0.523-1.146,0.949C353.003,450.706,355.282,451.32,355.269,449.595z
			 M378.478,468.161c-0.008,0.007-0.01,0.014-0.018,0.021l1.065-0.012C379.218,468.045,378.87,468.047,378.478,468.161z
			 M355.706,418.787c0.344,0.518,0.385,1.644,1.242,1.102c0.79-0.366,0.79-0.366,1.111-1.152c-0.353-0.331-0.657-0.618-0.945-0.888
			C356.096,418.198,356.096,418.198,355.706,418.787z M350.108,407.404c0.245,0.611,0.413,1.233,1.092,1.558
			C353.387,407.69,352.244,405.661,350.108,407.404z M377.942,458.254c0.756,1.139,2.075,1.169,2.188-0.409
			C379.555,456.45,378.318,457.024,377.942,458.254z M364.234,432.569c0.087,0.347,0.177,0.711,0.29,1.162
			c1.417,0.259,1.939-0.171,1.778-1.609C365.697,431.706,364.562,431.81,364.234,432.569z M365.071,461.805
			c0.408-0.216,0.773-0.41,1.146-0.608c0.345-2.539-2.552-1.819-1.729,0.308C364.69,461.609,364.888,461.711,365.071,461.805z
			 M363.726,396.546c-0.686-1.279-2.254-1.486-2.239,0.23C361.612,397.99,363.514,397.67,363.726,396.546z M353.057,444.185
			c0.202,1.604,1.302,0.431,2.206,0.444C355.661,442.924,353.054,442.492,353.057,444.185z M359.003,443.088
			c-0.123,0.31-0.232,0.588-0.341,0.863c0.124,0.464,0.321,0.868,0.804,1.138C361.412,444.739,361.053,442.538,359.003,443.088z
			 M372.689,407.911c-0.001-0.003-0.002-0.005-0.003-0.008c0,0,0,0,0,0C372.687,407.906,372.688,407.909,372.689,407.911z
			 M369.825,410.024c-0.035,2.001,1.173,1.963,2.168,0.462C371.222,409.636,370.89,408.985,369.825,410.024z M352.015,431.128
			c0.127-0.419,0.376-0.801,0.702-1.1c-0.927-1.005-1.136-1.051-2.134-0.49C350.35,430.652,350.684,431.313,352.015,431.128z
			 M353.063,388.231c-0.01,0.662,0.154,0.78,1.022,0.652c0,0.227,0,0.374,0,0.514c0.46,0.224,0.712-0.115,1.008-0.257
			c-0.062-0.615-0.119-1.164-0.183-1.792C354.269,387.261,352.95,387.297,353.063,388.231z M354.087,411.697
			c1.425-0.17,1.721-1.798,0.107-1.959C352.918,409.957,352.706,411.35,354.087,411.697z M359.051,420.969
			c-0.212,0.74-0.201,1.35,0.122,2.085c0.866-0.1,1.29-0.712,1.745-1.284C360.128,420.698,360.09,420.682,359.051,420.969z
			 M361.279,430.336c0.243,1.425,1.809,0.861,2.314-0.058C364.037,428.743,361.68,429.413,361.279,430.336z M375.333,443.202
			c-0.055,0.863,1.03,1.01,0.845,1.921C378.886,444.857,377.314,442.401,375.333,443.202z M349.591,399.934
			c-0.258-0.624-0.607-1.194-0.998-1.753c-0.711,0.306-0.881,0.995-1.293,1.466C347.898,400.534,348.286,400.583,349.591,399.934z
			 M356.065,451.827c0.127,0.503,0.565,0.684,0.312,1.238c0.553,0.136,0.838,0.865,1.589,0.507c0.135-0.93-0.416-1.607-0.881-2.458
			C356.678,451.397,356.403,451.59,356.065,451.827z M378.401,451.614c-0.047,0.515-0.033,1.028,0.043,1.536
			c1.379,0.178,1.547,0.092,1.943-0.984c-0.34-0.379-0.682-0.759-1.105-1.23c-0.059,0.23-0.091,0.355-0.141,0.554
			C378.959,451.521,378.714,451.561,378.401,451.614z M360.893,432.842c-0.1-0.221-0.208-0.459-0.3-0.66
			c-0.609-0.129-1.392-0.179-1.876,0.548c0.107,0.481,0.265,0.953,0.538,1.367C360.12,433.846,360.15,433.823,360.893,432.842z
			 M369.766,404.886c-0.034,0.6,0.607,1.285,1.318,1.303C373.177,405.933,370.211,402.668,369.766,404.886z M346.642,412.79
			c0.038,0.219,0.076,0.441,0.115,0.669c0.053-0.149,0.116-0.291,0.218-0.413C346.865,412.945,346.753,412.864,346.642,412.79z
			 M349.21,415.844c0.449-0.471-0.283-0.977-0.785-0.801c-0.674,0.427-0.595,1.399-0.673,2.141
			C348.876,417.499,349.825,416.915,349.21,415.844z M375.32,465.977c-0.547,1.594,1.448,1.199,2.192,0.498
			C377.383,465.31,375.837,464.85,375.32,465.977z M358.065,440.859c-0.541-0.029-1.055-0.222-1.388-0.69
			c-0.745,0.266-0.557,0.945-0.76,1.515C356.587,442.453,358.48,442.147,358.065,440.859z M353.104,433.337
			c0.84,1.13,2.687-0.207,1.707-1.299C353.515,431.598,353.396,432.241,353.104,433.337z M383.026,466.659
			c-0.018-0.231-0.041-0.466-0.06-0.698c-0.382-0.341-1.265-0.385-1.723-0.618c-0.116,0.315-0.195,0.528-0.281,0.76
			c0.227,0.385,0.459,0.777,0.731,1.237C382.285,467.511,382.671,467.08,383.026,466.659z M381.209,450.192
			c-0.046-0.329-0.098-0.659-0.145-0.988c-0.062,0.063-0.122,0.126-0.151,0.212C380.939,449.782,381.052,450.032,381.209,450.192z
			 M349.629,421.705c-0.539-0.507-1.187-0.713-1.616-0.584c0.088,0.564,0.177,1.137,0.266,1.721c0.206,0,0.396,0,0.546,0
			C349.11,422.441,349.346,422.105,349.629,421.705z M363.771,446.936c-0.545-0.19-1.044-0.366-1.543-0.541
			c0.149-0.153,0.298-0.306,0.447-0.457c-1.213,0.297-1.307,0.578-0.575,1.897C362.646,447.611,363.289,447.578,363.771,446.936z
			 M371.706,416.435c-0.087-0.277-0.112-0.519,0.022-0.771c0.103-1.254-1.373-0.09-1.805,0.3
			C370.313,417.174,371.747,417.572,371.706,416.435z M355.016,422.173c-0.248-0.137-0.442-0.244-0.635-0.351
			c0.678-0.835-0.185-1.43-0.855-0.75C352.593,422.195,354.569,423.828,355.016,422.173z M352.374,418.711
			c-0.421-0.494-0.853-0.8-1.522-0.609c-0.096,0.462-0.189,0.903-0.283,1.358C351.382,420.483,351.835,419.293,352.374,418.711z"/>
		<g>
			<path style="fill:#421B36;" d="M216.75,431.236c0.104,11.885-0.851,24.023-2.114,35.84c-0.086,0.804-1.29,0.846-1.286,0
				c0.054-11.917,1.853-24.023,3.273-35.84C216.633,431.158,216.749,431.153,216.75,431.236L216.75,431.236z"/>
		</g>
		<g>
			<path style="fill:#421B36;" d="M119.008,468.119c-0.046-0.394-0.32-0.757-0.455-1.128c-0.139-0.385-0.239-0.778-0.338-1.174
				c-0.168-0.671-0.489-1.332-0.06-1.952c0.195-0.282,0.55-0.339,0.811-0.104c0.564,0.508,0.407,1.2,0.397,1.901
				c-0.006,0.412-0.016,0.819-0.062,1.229c-0.045,0.402-0.231,0.825-0.184,1.229C119.124,468.188,119.016,468.188,119.008,468.119
				L119.008,468.119z"/>
		</g>
	</g>
</g>
<g id="Character">
	<g>
		<g>
			<g>
				<g>
					<g>
						<path style="fill:#421B36;" d="M291.579,328.285c-0.76-0.548-1.723-0.884-2.49-1.565c-3.494-3.101-6.682-7.722-8.211-11.99
							c-1.865-5.205,8.488-24.503,8.979-24.993l-20.209,3.679c0,0-4.482,18.364-5.269,24.157
							c-0.787,5.794-5.701,20.032-3.935,23.567c1.767,3.536,27.316,8.209,36.922,9.045c14.922,1.298,20.237-5.051,20.33-6.967
							C317.76,341.904,295.801,331.33,291.579,328.285z"/>
						<path style="fill:#421B36;" d="M317.418,342.774c-0.453-0.376-0.901-0.666-1.725-1.181c0,0,0.036-0.098,0,0
							c-0.315,0.193-9.861,5.745-26.231,4.879c-16.648-0.883-29.177-10.315-29.177-10.315c-0.305,2.206-0.362,4.099,0.128,5.073
							c0.056,0.111,0.136,0.221,0.233,0.331c0.198,0.228,0.49,0.459,0.859,0.691c5.33,3.353,27.129,7.268,35.832,8.025
							c11.473,1.001,17.141-2.49,19.32-5.035C317.75,343.9,317.886,343.163,317.418,342.774z"/>
					</g>
					<path style="fill:#8380FF;" d="M291.579,328.285l20.319,11.214l3.795,2.095c0,0-9.629,5.953-26.278,5.068
						c-16.649-0.885-29.131-10.504-29.131-10.504c0.485-3.378,1.631-8.042,2.894-12.933c0,0,3.49,3.757,9.733,3.839
						c0.244,0.003,0.487-0.014,0.731-0.025c-0.06-2.26,0.185-5.665,1.907-7.806c2.591-3.222,8.78-4.899,11.02,0.767
						c0,0,0.425,3.145,1.013,4.614C288.172,326.081,291.579,328.285,291.579,328.285z"/>
				</g>
				<g>
					<path style="fill:#421B36;" d="M290.285,326.699c-0.97,0.439-1.939,1.036-2.719,1.761c-0.833,0.775-1.268,1.706-1.908,2.612
						c-0.385,0.546-1.302,0.233-1.117-0.471c0.61-2.327,3.25-4.111,5.493-4.498C290.367,326.046,290.648,326.534,290.285,326.699
						L290.285,326.699z"/>
				</g>
				<g>
					<path style="fill:#421B36;" d="M294.093,329.538c-0.623,0.825-1.671,1.302-2.408,2.029c-0.419,0.414-0.801,0.862-1.128,1.353
						c-0.288,0.432-0.452,0.905-0.939,1.133c-0.235,0.11-0.597,0.04-0.652-0.265c-0.193-1.07,1.055-2.282,1.782-2.963
						c0.802-0.752,1.97-1.741,3.137-1.648C294.046,329.19,294.213,329.379,294.093,329.538L294.093,329.538z"/>
				</g>
				<g>
					<path style="fill:#421B36;" d="M297.617,331.641c-0.552,0.762-1.281,1.374-1.837,2.14c-0.57,0.785-0.932,1.665-1.42,2.494
						c-0.339,0.576-1.226,0.192-1.067-0.45c0.445-1.801,2.153-4.045,3.905-4.73C297.491,330.981,297.801,331.386,297.617,331.641
						L297.617,331.641z"/>
				</g>
				<g>
					<path style="fill:#421B36;" d="M289.626,326.604c-1.946-1.598-4.653-2.525-7.135-1.705c-0.244,0.104-0.488,0.207-0.732,0.311
						c-0.202,1.235,0.23,1.75,1.294,1.544c0.662,0.026,1.344-0.03,2-0.107c1.516-0.176,2.921-0.642,4.375-1.073
						c0.51-0.151,0.848,0.615,0.366,0.869c-2.118,1.114-5.059,1.811-7.463,1.446c-1.382-0.21-2.893-1.396-2.008-2.92
						c0.863-1.487,3.579-1.661,5.045-1.464c1.913,0.258,3.518,1.245,4.585,2.846C290.093,326.562,289.796,326.744,289.626,326.604
						L289.626,326.604z"/>
				</g>
				<g>
					<path style="fill:#421B36;" d="M289.089,326.172c0.536-1.194,1.212-2.308,1.596-3.569c0.236-0.775,1.025-3.515,0.318-4.191
						c-0.574-0.078-1.148-0.156-1.722-0.234c-0.204,0.416-0.35,0.851-0.437,1.306c-0.183,0.77-0.247,1.591-0.227,2.38
						c0.036,1.454,0.414,2.829,0.916,4.182c0.184,0.495-0.61,0.826-0.852,0.359c-1.157-2.229-1.475-4.765-0.929-7.223
						c0.294-1.322,1.067-3.117,2.733-2.751c1.998,0.439,1.869,3.064,1.628,4.621c-0.31,2.001-1.152,4.091-2.826,5.317
						C289.157,326.466,289.037,326.288,289.089,326.172L289.089,326.172z"/>
				</g>
			</g>
			<path style="fill:#8380FF;" d="M241.16,182.178c-0.418,1.59,2.837,19.219,2.837,19.219s28.517-6.696,46.618-1.823
				c3.778,1.017,9.237,4.954,10.306,11.364c1.891,11.344-1.423,82.912-4.319,91.783c-2.896,8.871-34.399,2.984-34.399,2.984
				l6.665-72.328l-46.561,4.612c0,0-21.208-4.429-24.269-10.868c-2.47-5.196-5.324-16.363-3.146-26.396
				c2.232-10.285,9.378-22.907,9.378-22.907L241.16,182.178z"/>
			<g>
				<g>
					<g>
						<path style="fill:#421B36;" d="M116.616,350.749c0.283-0.893,0.3-1.913,0.706-2.854c1.851-4.289,5.242-8.764,8.816-11.552
							c4.36-3.401,25.216-3.77,25.836-3.458l-11.282-19.506c0,0-16.672,7.118-22.421,8.184c-5.749,1.067-20.809,0.858-23.614,3.643
							c-2.805,2.785,0.757,28.513,2.972,37.897c3.439,14.578,11.134,17.638,12.982,17.126
							C111.88,379.878,115.045,355.712,116.616,350.749z"/>
						<path style="fill:#421B36;" d="M110.946,379.826c0.216-0.548,0.351-1.065,0.581-2.008c0,0,0.105,0.004,0,0
							c-0.282-0.239-8.544-7.566-12.848-23.384c-4.374-16.087,0.66-30.939,0.66-30.939c-2.19,0.401-4.006,0.94-4.778,1.71
							c-0.088,0.088-0.167,0.198-0.242,0.326c-0.155,0.26-0.282,0.609-0.387,1.032c-1.515,6.112,1.593,28.041,3.598,36.543
							c2.642,11.21,7.733,15.499,10.832,16.772C109.981,380.493,110.723,380.391,110.946,379.826z"/>
					</g>
					<path style="fill:#8380FF;" d="M116.616,350.749l-4.287,22.809l-0.801,4.26c0,0-8.669-7.281-13.042-23.369
						c-4.373-16.089,0.853-30.955,0.853-30.955c3.36-0.597,8.148-0.969,13.189-1.301c0,0-2.475,4.491-0.598,10.446
						c0.073,0.233,0.166,0.459,0.253,0.686c2.128-0.765,5.438-1.598,8.01-0.633c3.871,1.452,7.402,6.805,2.722,10.706
						c0,0-2.854,1.388-4.064,2.407C117.641,346.823,116.616,350.749,116.616,350.749z"/>
				</g>
				<g>
					<path style="fill:#421B36;" d="M117.701,349.009c-0.731-0.789-1.596-1.516-2.541-2.035c-0.99-0.545-2.016-0.682-3.081-0.984
						c-0.672-0.19-0.524-1.177,0.162-1.201c2.423-0.084,4.877,1.782,5.971,3.825C118.383,348.93,117.962,349.29,117.701,349.009
						L117.701,349.009z"/>
				</g>
				<g>
					<path style="fill:#421B36;" d="M116.199,353.526c-0.98-0.399-1.754-1.184-2.699-1.666c-0.946-0.482-2.179-0.532-2.996-1.185
						c-0.284-0.227-0.083-0.64,0.196-0.741c1.051-0.383,2.481,0.392,3.396,0.907c0.965,0.544,2.052,1.288,2.399,2.39
						C116.545,353.391,116.37,353.595,116.199,353.526L116.199,353.526z"/>
				</g>
				<g>
					<path style="fill:#421B36;" d="M115.298,357.529c-0.896-0.303-1.714-0.79-2.621-1.078c-0.924-0.293-1.871-0.365-2.813-0.567
						c-0.675-0.145-0.471-1.105,0.155-1.147c1.83-0.123,4.416,0.765,5.639,2.172C115.884,357.167,115.675,357.656,115.298,357.529
						L115.298,357.529z"/>
				</g>
				<g>
					<path style="fill:#421B36;" d="M117.585,348.406c0.773-2,1.246-5.648-0.59-7.306c-0.39-0.781-0.971-0.595-1.743,0.557
						c0.07,0.282,0.155,0.559,0.254,0.831c0.242,0.72,0.544,1.417,0.89,2.092c0.605,1.18,1.381,2.215,2.134,3.301
						c0.316,0.455-0.368,0.939-0.747,0.576c-1.732-1.66-3.164-4.125-3.668-6.487c-0.273-1.276,0.163-3.003,1.746-2.976
						c1.918,0.033,3.071,2.832,3.356,4.387c0.347,1.893-0.106,3.721-1.285,5.228C117.807,348.77,117.512,348.595,117.585,348.406
						L117.585,348.406z"/>
				</g>
				<g>
					<path style="fill:#421B36;" d="M117.812,347.72c1.22,0.136,2.424,0.404,3.656,0.406c0.682,0.001,1.368-0.066,2.036-0.198
						c1.221-0.241,1.484-0.132,1.584-1.494c0.098-1.335,0.083-1.137-0.95-1.041c-0.722,0.067-1.457,0.235-2.147,0.462
						c-1.416,0.466-2.663,1.268-3.819,2.192c-0.458,0.367-1.087-0.217-0.659-0.659c1.618-1.673,3.739-2.719,6.042-3.054
						c1.289-0.188,3.398-0.299,3.924,1.281c0.596,1.794-1.409,2.771-2.771,3.152c-2.252,0.629-5,0.596-6.969-0.776
						C117.634,347.917,117.655,347.702,117.812,347.72L117.812,347.72z"/>
				</g>
				<path style="fill:#8380FF;" d="M237.943,213.978c0,0-16.466,66.42-29.996,83.047c-11.619,14.279-57.729,43.366-61.331,46.44
					c-10.515,8.973-24.164-26.52-24.445-29.758l59.176-32.312l18.576-77.296L237.943,213.978z"/>
			</g>
			<g>
				<path style="fill:#421B36;" d="M268.085,234.058c-8.304,1.04-16.553,2.329-24.917,2.831c-10.795,0.648-21.926,0.371-32.39-2.61
					c-5.653-1.61-11.044-4.086-15.683-7.723c-0.611-0.479,0.249-1.328,0.854-0.854c8.437,6.616,19.381,9.116,29.87,9.931
					c10.138,0.788,20.343,0.06,30.414-1.187c3.957-0.49,7.897-1.099,11.853-1.595C268.854,232.754,268.847,233.962,268.085,234.058
					L268.085,234.058z"/>
			</g>
			<g>
				<path style="fill:#421B36;" d="M282.02,198.891c-8.121-0.257-16.312,0.573-24.387,1.334c-8.375,0.79-16.733,1.75-25.086,2.742
					c-2.473,0.294-4.946,0.624-7.426,0.854c-0.773,0.072-0.768-1.136,0-1.207c5.835-0.541,11.651-1.366,17.475-2.023
					c8.99-1.014,17.996-1.964,27.025-2.549c4.123-0.267,8.267-0.489,12.4-0.359C282.795,197.708,282.798,198.916,282.02,198.891
					L282.02,198.891z"/>
			</g>
			<path style="opacity:0.2;fill:#421B36;" d="M196.264,227.197c0.371,0.222,0.801,0.47,1.285,0.741
				C196.986,228.117,196.406,227.929,196.264,227.197z M207.167,265.017c0.757,0.585,1.505,1.15,2.237,1.692
				c0.706-0.671-0.227-1.945-1.258-2.359C207.613,264.47,207.308,264.718,207.167,265.017z M218.272,254.036
				c-0.427,4.394,4.788-0.102,1.053-0.86C218.857,253.344,218.637,253.787,218.272,254.036z M215.389,258.235
				c1.163,0.785,2.728,0.514,2.466-1.377c-0.329-0.274-0.679-0.564-1.017-0.843C215.746,256.168,215.326,257.318,215.389,258.235z
				 M222.826,253.114c0.219-0.411,0.395-0.74,0.594-1.115c-0.272-0.524-0.406-1.19-1.081-1.567c-0.341,0.169-0.703,0.347-1.07,0.528
				C220.401,252.173,221.362,253.539,222.826,253.114z M204.252,262.71c0.504,0.409,1.007,0.812,1.51,1.21
				c1.765-0.812,1.354-2.167-0.73-2.343C204.54,261.818,204.291,262.263,204.252,262.71z M210.239,267.322
				c0.73,0.529,1.434,1.023,2.115,1.488C212.782,267.67,211.331,267.085,210.239,267.322z M194.958,250.816
				c-0.385-0.298-0.676-0.653-1.185-0.27c-0.991,0.712-0.533,2.525,0.841,2.377C195.744,253.045,196.142,251.014,194.958,250.816z
				 M203.866,255.372c0.555-1.046-0.284-2.024-1.242-2.222c-0.3,0.208-0.579,0.4-0.907,0.626
				C201.318,255.251,202.556,256.228,203.866,255.372z M229.731,242.495c-0.242,0.28-0.356,0.635-0.319,0.996
				C229.522,243.149,229.628,242.82,229.731,242.495z M223.99,244.196c0.691,0.939,1.756,0.481,2.436-0.28
				c-0.534-0.525-0.079-1.307-0.77-1.558C224.608,242.047,223.682,242.722,223.99,244.196z M214.173,264.52
				c-2.196,0.029-1.665,1.728-0.187,2.479C215.27,266.692,215.628,264.745,214.173,264.52z M226.562,247.788
				c-0.767,0.17-1.555-0.178-2.293,0.119C222.98,251.191,226.546,250.38,226.562,247.788z M211.436,256.02
				c-2.471-0.027-1.43,3.059,0.554,2.361C212.615,257.709,212.282,256.449,211.436,256.02z M218.132,260.067
				c0.655,1.373,1.188,1.543,2.482,0.819C221.104,258.971,218.75,258.145,218.132,260.067z M209.745,246.125
				c0.382,0.897,1.067,1.343,2.037,0.988c0.364-0.066,0.4-0.17,0.452-0.631C212.686,244.388,210.506,244.648,209.745,246.125z
				 M204.458,245.669c0.518,0.59-0.108,1.677,0.711,1.901C208.001,247.736,206.551,243.416,204.458,245.669z M218.151,248.47
				c0.505,1.227,0.682,2.092,2.211,1.576C222.062,248.705,219.419,247.233,218.151,248.47z M198.735,246.152
				c0.67,1.18,1.378,2.109,2.464,0.569C201.622,244.835,199.045,244.569,198.735,246.152z M223.795,260.421
				c0.097-0.286,0.195-0.577,0.293-0.868c-0.107,0.096-0.204,0.208-0.284,0.337C223.765,260.087,223.768,260.263,223.795,260.421z
				 M193.328,246.261c-0.051,1.51,1.646,1.544,2.214,0.328C196.314,245.016,193.15,244.298,193.328,246.261z M190.594,248.602
				c0.367,1.622,0.736,1.923,2.04,1.622c0.009-0.843,0.643-1.824-0.341-2.185C191.566,247.611,190.999,247.935,190.594,248.602z
				 M213.31,253.652c-1.634,0.589-0.018,2.453,1.162,2.25C215.287,254.749,215.058,252.794,213.31,253.652z M207.121,259.92
				c0.53,0.574,0.53,0.574,0.379,1.249c0.223,0.115,0.391,0.202,0.548,0.282c0.38-0.186,0.742-0.363,1.191-0.582
				c0.083-0.223,0.2-0.54,0.303-0.819C209.367,258.561,207.531,258.461,207.121,259.92z M211.098,261.576
				c-0.504,0.351-0.916,0.515-1.248,0.953c0.295,1.071,0.344,1.15,1.061,1.721C212.885,264.003,212.405,262.478,211.098,261.576z
				 M222.592,263.969c0.186-0.547,0.376-1.107,0.573-1.686c-0.544-0.67-1.672-0.782-2.241,0.311
				C221.114,263.372,221.899,263.934,222.592,263.969z M209.795,243.63c-0.21-0.778-0.591-1.306-1.403-1.516
				c-0.835,0.74-1.438,0.861-0.843,2.096C208.78,244.712,208.947,244.672,209.795,243.63z M198.673,239.89
				c-0.12,3.288,4.109,1.369,1.623-0.573C199.738,239.514,199.239,239.69,198.673,239.89z M221.516,245.094
				c-0.574,0.981-0.352,2.688,1.128,2.053C224.516,246.717,223.012,244.451,221.516,245.094z M230.774,239.164
				c0.268-0.883,0.471-1.585,0.592-2.061c-0.784-0.708-2.38-0.192-1.719,1.263C229.946,238.951,230.372,239.203,230.774,239.164z
				 M204.686,257.251c0.141,3.149,4.043-0.632,1.254-1.133C205.311,255.991,204.598,256.631,204.686,257.251z M223.166,256.987
				c0.351-1.517-2.209-1.198-2.021,0.034C221.089,259.055,223.316,258.804,223.166,256.987z M215.329,249.364
				c0.152-0.598-0.586-0.526-0.716-1.023c-0.382-0.922-1.167-0.372-1.803,0.007C212.266,250.293,214.598,250.618,215.329,249.364z
				 M212.565,260.103c0.621,1.859,2.776,1.212,2.286-0.684C213.517,258.18,213.43,258.955,212.565,260.103z M226.603,252.051
				c0.117-0.353,0.234-0.705,0.351-1.055C226.638,251.246,226.544,251.657,226.603,252.051z M228.183,247.269
				c0.195-0.595,0.385-1.175,0.57-1.743c-0.018-0.035-0.029-0.067-0.049-0.102c-0.812-0.755-2.095-0.189-2.181,0.921
				C226.948,247.097,227.64,247.366,228.183,247.269z M195.906,243.779c1.767,2.406,4.195-1.376,0.963-1.488
				C196.527,242.818,196.224,243.286,195.906,243.779z M214.312,244.548c0.387-0.373,0.811-0.65,0.917-1.288
				C213.65,240.549,211.154,244.427,214.312,244.548z M218.098,251.803c-0.251-0.668-0.607-1.176-1.281-1.427
				C214.534,251.7,217.071,254.517,218.098,251.803z M204.269,240.31c0.426,1.492,0.437,1.501,1.62,1.416
				c0.176-0.2,0.032-0.545,0.451-0.687c0.615-0.206,0.604-1.339-0.064-1.505C205.571,239.385,204.816,239.904,204.269,240.31z
				 M200.368,255.998c-0.916-0.051-2.619,1.942-1.042,1.933c0.498-0.242,0.47,0.418,1.008,0.469
				C201.238,257.674,201.542,256.676,200.368,255.998z M193.149,234.914c0.271,0.455,0.504,0.841,0.792,1.322
				C196.862,236.121,195.03,231.88,193.149,234.914z M217.705,235.253c-0.754-0.145-1.495-0.301-2.22-0.466
				c-0.096,0.346,0.09,0.756,0.399,1.336c0.722,0.272,1.253-0.079,1.83-0.274C217.717,235.62,217.714,235.428,217.705,235.253z
				 M215.874,263.9c0.965,1.046,2.561-0.467,1.904-1.603C216.755,261.263,215.376,262.683,215.874,263.9z M206.057,253.059
				c0.326-0.391,0.494-0.852,0.694-1.315C205.008,248.983,202.763,253.094,206.057,253.059z M203.101,233.72
				c0.323-0.485,0.595-0.896,0.905-1.362C202.754,229.317,200.251,232.834,203.101,233.72z M203.56,249.806
				c0.152-0.306,0.303-0.61,0.473-0.955c-0.311-0.406-0.609-0.794-0.92-1.198c-0.469-0.056-0.799,0.193-1.202,0.521
				C201.794,249.513,201.885,250.479,203.56,249.806z M224.241,238.249c-0.252,1.193,1.556,0.765,1.965,0.145
				c-0.244-1.053-0.662-2.028-1.929-1.632C224.035,237.341,223.896,237.71,224.241,238.249z M197.331,236.481
				c-0.394,0.187-0.766,0.362-1.11,0.525c-0.12,0.875-0.12,0.875,0.49,1.718c0.309,0.063,0.639,0.131,0.945,0.194
				C198.57,238.349,198.341,236.844,197.331,236.481z M217.365,241.45c0.14-0.465,0.289-0.964,0.439-1.467
				c-0.821-0.636-1.485-0.269-2.164,0.099c-0.123,0.824-0.157,1.571,0.867,1.928C216.761,241.844,217.042,241.66,217.365,241.45z
				 M209.781,251.54c0.14,0.616,0.463,0.967,0.771,1.337C213.391,252.831,211.982,248.897,209.781,251.54z M207.234,248.502
				c0.065,2.107,2.041,2.171,2.28,0.18C208.908,247.681,208.002,247.67,207.234,248.502z M224.831,255.681
				c0.2-0.094,0.42-0.138,0.631-0.213c0.174-0.52,0.348-1.04,0.522-1.561c-0.083-0.316-0.33-0.513-1.175-0.675
				C223.768,253.663,223.742,255.185,224.831,255.681z M196.88,253.446c-0.762,0.645-1.125,2.197,0.243,2.168
				c0.266-0.502,0.845-0.26,1.188-0.467c0.186-0.416,0.12-0.839,0.182-1.263C198.04,253.327,197.404,253.673,196.88,253.446z
				 M210.164,239.959c-0.126,0.341-0.242,0.656-0.357,0.973C211.576,243.81,214.043,238.488,210.164,239.959z M218.438,238.404
				c0.68,0.396,0.68,0.396,1.67,0.3c0.896-1.593,1.232-1.242-0.706-1.981C218.32,237.171,218.32,237.171,218.438,238.404z
				 M196.454,249.83c0.835,0.409,0.835,0.409,1.663-0.068c-0.259-0.552,0.443-1.419-0.397-1.661
				C196.245,247.347,195.699,248.635,196.454,249.83z M219.596,244.507c1.21-0.376,1.344-1.823,0.107-2.201
				C218.088,242.264,217.953,244.225,219.596,244.507z M201.775,259.556c-0.489,1.802,1.77,2.092,2.415,0.802
				C203.78,259.372,202.654,258.735,201.775,259.556z M208.65,233.7c0.249-0.221,0.479-0.426,0.697-0.621
				c-0.676-0.222-1.334-0.449-1.97-0.679C207.399,232.888,207.786,233.428,208.65,233.7z M222.667,239.605
				c-0.717-0.193-1.681,0.957-1.71,1.6C222.402,242.165,224.646,240.895,222.667,239.605z M211.759,234.254
				c-0.31-0.098-0.597-0.189-0.835-0.263c-0.762,0.246-0.622,0.924-0.828,1.474c0.253,0.308,0.514,0.625,0.762,0.927
				C212.223,236.745,212.312,235.141,211.759,234.254z M205.878,234.151c-1.633-0.787-1.458,1.822-0.328,2.084
				C206.776,236.409,207.34,234.069,205.878,234.151z M220.679,265.854c-0.095-0.29-0.202-0.614-0.324-0.986
				c-0.342-0.088-0.707-0.182-1.137-0.292C216.695,265.544,219.856,267.737,220.679,265.854z M201.267,235.378
				c0.037-1.57-2.282-2.085-2.341-0.266C199.294,236.498,200.422,235.911,201.267,235.378z M222.594,236.004
				c-0.218-0.025-0.441-0.045-0.657-0.072C222.136,236.023,222.358,236.047,222.594,236.004z M193.947,228.583l-0.316,1.314
				c0.351,0.815,1.422,1.03,1.983-0.36C195.221,228.532,194.765,228.203,193.947,228.583z M190.059,245.987
				c-0.071-0.115-0.146-0.212-0.223-0.299l-0.319,1.328C189.784,246.825,189.968,246.504,190.059,245.987z M228.988,240.647
				c-0.17-0.256-0.356-0.538-0.59-0.891c-0.479,0-0.894,0-1.288,0c-0.432,0.756-0.42,0.813,0.385,1.931
				C228.568,241.851,228.568,241.851,228.988,240.647z M219.79,272.067c0.027-0.048,0.23-0.615,0.559-1.559
				c-1.589-1.115-3.129,2.136-0.809,1.737c0.068-0.05,0.134-0.093,0.2-0.135C219.754,272.092,219.779,272.086,219.79,272.067z
				 M200.632,230.573c0.106-0.285,0.222-0.592,0.327-0.869c-0.615-0.296-1.19-0.583-1.723-0.86
				c-0.094,0.116-0.181,0.257-0.258,0.423c0.145,0.452,0.238,0.739,0.33,1.031C199.704,230.516,200.092,230.799,200.632,230.573z
				 M195.861,232.302c0.388,0.591,0.787,0.934,1.396,1.118c0.367-0.315,0.764-0.655,1.176-1.007
				C197.754,231.252,196.337,230.809,195.861,232.302z M201.424,237.884c0.305,0.377,0.587,0.728,0.898,1.114
				c0.561-0.238,1.149-0.403,1.577-0.985c-0.228-0.793-0.984-1.095-1.82-1.04C201.879,237.251,201.661,237.555,201.424,237.884z
				 M215.908,267.616c-0.031,0.459-0.058,0.872-0.091,1.357c1.026,0.705,1.354,0.84,2.131-0.35
				C217.459,267.949,216.78,266.981,215.908,267.616z M209.612,254.672c-0.261-1.558-1.492-1.45-2.369-0.377
				C207.704,255.611,208.787,255.784,209.612,254.672z M209.089,238.658c-0.176-0.514,0.398-0.92,0.09-1.502
				C206.764,236.245,206.556,239.84,209.089,238.658z M192.367,237.076c-0.148-0.073-0.289-0.126-0.422-0.162l-0.421,1.752
				c0.266-0.041,0.582-0.145,0.952-0.334C192.438,237.909,192.404,237.506,192.367,237.076z M190.514,243.098
				c0.036,1.276,2.621,1.916,2.219,0.403C191.611,242.249,192.256,241.804,190.514,243.098z M198.928,252.31
				c0.42,0.63,1.003,0.33,1.562,0.317c0.161-0.279,0.312-0.538,0.471-0.813C200.3,249.785,199.247,250.727,198.928,252.31z
				 M215.318,246.17c0.243,0.353,0.432,0.624,0.63,0.911c0.536,0,1.059,0,1.607,0c-0.023-0.377-0.041-0.706-0.066-1.121
				c-0.25-0.163-0.56-0.368-0.928-0.608C216.184,245.6,215.808,245.847,215.318,246.17z M201.464,243.455
				c0.238,0.515,0.662,0.686,1.064,0.853c1.053-0.339,1.327-0.621,0.417-1.738C202.386,242.689,201.771,242.723,201.464,243.455z
				 M194.581,239.841c-1.257,0.368-1.401,1.994,0.148,1.717C195.798,241.509,195.502,240.017,194.581,239.841z M213.107,238.711
				c0.905-0.076,2.239-0.196,1.664-1.371C213.898,237.061,212.116,237.399,213.107,238.711z M223.845,239.374
				c-0.034,0.098-0.148,0.182,0.007,0.229C223.891,239.509,223.986,239.428,223.845,239.374z"/>
		</g>
		<path style="fill:#421B36;" d="M198.765,85.602c-7.042-0.463-14.387,2.316-18.809,7.816c-1.263,1.57-2.318,3.369-3.971,4.522
			c-2.239,1.563-5.143,1.661-7.786,2.347c-3.612,0.938-6.987,3.191-8.715,6.498c-1.729,3.307-1.536,7.686,0.926,10.49
			c2.193,2.497,5.77,3.414,9.082,3.142c3.312-0.272,6.442-1.573,9.49-2.896c-2.393,1.142-2.185,5.003-0.119,6.665
			c2.065,1.663,5.037,1.592,7.611,0.957c6.601-1.627,12.022-6.252,16.814-11.074c4.793-4.822,9.33-10.066,15.191-13.511
			l-1.029-6.013C212.469,89.546,205.807,86.065,198.765,85.602z"/>
		<g>
			<g>
				<path style="fill:#421B36;" d="M243.694,75.152c3.331,0.378,6.624,1.935,8.598,4.645c1.974,2.71,2.384,6.631,0.559,9.443
					c-0.357,0.549-0.8,1.077-0.912,1.723c-0.114,0.66,0.139,1.319,0.327,1.962c0.746,2.552,0.467,5.388-0.763,7.744l-17.678-24.086
					C236.988,75.471,240.363,74.774,243.694,75.152z"/>
				<g>
					<path style="fill:#FFBFBF;" d="M222.247,83.403c6.804-9.604,21.739-8.413,26.967,2.131c1.653,3.335,2.388,7.766,2.288,13.688
						c-0.28,16.522-14.261,16.587-14.261,16.587l-2.887,11.626l-3.186,1.653l-8.1-7.229l0.378-10.278c0,0-4.122-15.665-3.12-23.46
						C220.549,86.387,221.251,84.81,222.247,83.403z"/>
					<path style="fill:#421B36;" d="M245.127,90.395c0.014,0.605-0.417,1.107-0.963,1.119c-0.546,0.013-1-0.468-1.014-1.073
						c-0.014-0.605,0.417-1.107,0.963-1.119C244.66,89.31,245.113,89.79,245.127,90.395z"/>
					<path style="fill:#421B36;" d="M234.985,90.943c0.014,0.605-0.417,1.107-0.963,1.119c-0.546,0.013-1-0.468-1.014-1.073
						c-0.014-0.605,0.417-1.107,0.963-1.119C234.517,89.857,234.97,90.338,234.985,90.943z"/>
					<g>
						<path style="fill:#421B36;" d="M227.602,84.489c1.971-1.556,5.104-2.833,7.528-1.371c0.512,0.309,0.326,1.208-0.318,1.173
							c-1.124-0.061-2.156-0.391-3.303-0.278c-1.148,0.113-2.471,0.446-3.463,1.051C227.701,85.276,227.269,84.752,227.602,84.489
							L227.602,84.489z"/>
					</g>
					<g>
						<path style="fill:#421B36;" d="M229.684,113.506c3.066,1.049,6.151,1.826,9.417,1.662c0.748-0.038,0.74,1.11,0,1.159
							c-3.441,0.229-6.79-0.478-9.47-2.73C229.589,113.562,229.634,113.489,229.684,113.506L229.684,113.506z"/>
					</g>
					<path style="opacity:0.3;fill:#421B36;" d="M234.476,95.6c0.021,0.898-1.368,1.658-3.101,1.698
						c-1.734,0.041-3.156-0.654-3.177-1.552c-0.021-0.898,1.368-1.658,3.101-1.698C233.033,94.008,234.456,94.703,234.476,95.6z"/>
					<path style="opacity:0.3;fill:#421B36;" d="M250.735,95.6c0.021,0.898-1.368,1.658-3.101,1.698
						c-1.734,0.04-3.156-0.655-3.177-1.552c-0.021-0.898,1.368-1.658,3.101-1.698C249.291,94.008,250.714,94.703,250.735,95.6z"/>
					<g>
						<path style="fill:#421B36;" d="M236.188,76.663c-1.334-0.933-2.431-2.119-3.941-2.8c-2.344-1.057-4.413-0.681-6.822-0.197
							c-0.482,0.097-0.803-0.551-0.345-0.819c3.475-2.032,10.119-0.59,11.228,3.725C236.324,76.635,236.249,76.705,236.188,76.663
							L236.188,76.663z"/>
					</g>
					<g>
						<path style="fill:#421B36;" d="M229.051,68.03c4.674,0.136,8.161,3.385,8.877,8.003c0.113,0.73-1.003,1.044-1.118,0.308
							c-0.63-4.064-3.772-7.222-7.79-8.08C228.89,68.234,228.919,68.026,229.051,68.03L229.051,68.03z"/>
					</g>
					<g>
						<path style="fill:#421B36;" d="M245.265,84.169c-3.237-1.477-5.674,0.5-5.505,3.966c0.13,2.662,1.318,4.997,2.445,7.344
							c0.372,0.775-0.641,1.352-1.141,0.667c-2.096-2.868-3.764-8.292-1.915-11.637c1.308-2.367,4.598-2.89,6.457-0.781
							C245.822,83.974,245.553,84.3,245.265,84.169L245.265,84.169z"/>
					</g>
				</g>
				<path style="fill:#421B36;" d="M218.96,81.489c3.599-3.645,8.749-5.678,13.87-5.574c0.791,0.016,3.878-0.329,4.072,0.438
					c-1.37,5.027-6.794,10.582-11.509,12.799c-0.383,0.18-0.801,0.373-0.996,0.749c-0.218,0.421-0.085,0.928,0.035,1.387
					c1.524,5.79,2.09,12.609-1.464,17.427c-4.234-2.883-8.806-8.144-9.193-13.252C213.389,90.355,215.361,85.134,218.96,81.489z"/>
				<path style="fill:#FFBFBF;" d="M220.068,92.871c-0.938-0.441-2.105-0.206-2.923,0.432c-0.817,0.638-1.313,1.62-1.538,2.632
					c-0.374,1.682-0.002,3.575,1.191,4.818c1.193,1.243,3.246,1.667,4.723,0.779L220.068,92.871z"/>
				<g>
					<path style="fill:#421B36;" d="M218.407,97.739c0.111-0.353,0.086-0.64,0.373-0.922c0.26-0.255,0.654-0.41,1.007-0.46
						c0.758-0.109,1.652,0.176,2.131,0.79c0.454,0.581-0.24,1.313-0.82,0.82c-0.409-0.348-0.782-0.53-1.329-0.442
						c-0.227,0.036-0.437,0.118-0.656,0.179c-0.174,0.048-0.392,0.055-0.54,0.163C218.492,97.925,218.379,97.828,218.407,97.739
						L218.407,97.739z"/>
				</g>
			</g>
		</g>
		<path style="fill:#FFBFBF;" d="M236.949,122.679c0,0,4.211,5.809-2.564,5.656c-6.622-0.15-14.908-8.189-14.908-8.189
			S230.412,120.713,236.949,122.679z"/>
		<g>
			<g>
				<g>
					<path style="fill:#FFBFBF;" d="M299.21,170.79c0,0,19.655-4.244,24.384-3.338c4.73,0.906,8.503,2.176,10.115,4.137
						c1.613,1.963,1.841,3.487,0.244,4.085c-1.597,0.598-2.476-0.893-4.201-2.068c-1.725-1.175-4.87-2.139-4.87-2.139
						s4.235,3.019,5.314,5.613c1.078,2.595,2.005,3.64-0.483,4.143c0,0-0.107,3.145-2.994,2.299c0,0-0.275,1.708-1.824,1.794
						c-2.024,0.112-2.449-0.623-4.924-2.373c-2.476-1.75-4.142-3.054-7.898-1.648c-3.757,1.406-7.235,0.04-9.394-1.722l-7.619,2.479
						C295.059,182.052,287.729,174.445,299.21,170.79z"/>
				</g>
				<g>
					<path style="fill:#FFBFBF;" d="M316.223,170.031c3.809,1.23,7.284,3.476,9.97,6.444c0.357,0.395,0.71,0.819,0.856,1.332
						c0.146,0.512,0.03,1.135-0.406,1.441c-0.463,0.324-1.093,0.197-1.635,0.037c-2.523-0.74-4.927-1.883-7.093-3.372
						c-0.417-0.287-0.842-0.593-1.338-0.693c-0.648-0.13-1.304,0.113-1.944,0.28c-2.165,0.565-4.548,0.242-6.484-0.879"/>
					<g>
						<path style="fill:#421B36;" d="M316.071,170.545c2.809,0.927,5.437,2.376,7.685,4.304c0.579,0.496,1.132,1.022,1.658,1.574
							c0.461,0.485,1.175,1.102,1.159,1.823c-0.031,1.443-3.159-0.049-3.804-0.312c-1.347-0.55-2.643-1.23-3.87-2.013
							c-1.015-0.648-1.888-1.415-3.172-1.237c-1.264,0.175-2.379,0.61-3.688,0.539c-1.275-0.07-2.497-0.439-3.61-1.061
							c-0.6-0.336-1.164,0.578-0.559,0.917c1.914,1.071,4.136,1.474,6.299,1.073c0.58-0.107,1.143-0.334,1.729-0.405
							c0.739-0.09,1.27,0.308,1.854,0.703c1.128,0.763,2.315,1.437,3.552,2.008c1.147,0.529,2.334,1.002,3.552,1.342
							c0.826,0.231,1.821,0.339,2.414-0.422c1.543-1.98-1.765-4.468-3.059-5.54c-2.322-1.923-4.972-3.378-7.834-4.322
							C315.719,169.3,315.414,170.329,316.071,170.545L316.071,170.545z"/>
					</g>
				</g>
			</g>
			<path style="fill:#A0D2F4;" d="M243.677,124.865c0,0,4.078,1.053,9.252,7.289c5.174,6.235,15.98,38.784,15.98,38.784
				s29.341-7.535,32.299-2.385c2.958,5.15,4.237,14.851,1.479,17.545c-2.759,2.694-31.709,9.366-45.494,1.862
				c-13.786-7.504-19.733-34.759-19.733-34.759L243.677,124.865z"/>
			<path style="fill:#A0D2F4;" d="M215.966,120.145c-2.583,0.004-7.777-0.343-10.052,0.7c-4.248,1.946-5.038,6.46-6.934,11.118
				c-3.667,9.008-1.936,22.258-2.567,30.71c-0.717,9.602,2.364,14.147,6.28,15.937c2.105,0.962,0,0,0,0
				c0.001,0.842,37.32,6.173,37.932,4.577c0.381-0.993,4.196-0.653,7.227-10.17c3.031-9.516,4.691-37.298-1.317-46.159
				C244.187,123.396,227.876,120.128,215.966,120.145z"/>
			<g>
				<path style="fill:#421B36;" d="M250.696,138.666c1.288,5.466,1.023,11.417,0.538,16.963c-0.595,6.806-1.82,13.742-4.474,20.07
					c-1.246,2.97-2.847,5.865-5.173,8.129c-0.557,0.542-1.412-0.311-0.854-0.854c4.331-4.214,6.284-10.597,7.593-16.328
					c1.453-6.361,2.124-12.954,2.023-19.478c-0.042-2.732-0.188-5.513-0.817-8.182C249.354,138.231,250.518,137.909,250.696,138.666
					L250.696,138.666z"/>
			</g>
			<path style="fill:#A0D2F4;" d="M239.101,126.528c0,0,0.64-5.757-0.512-6.826c-1.151-1.069-1.886-1.726-1.886-1.726
				s-3.46,6.363-4.036,6.265c-0.576-0.098-2.303-5.03-4.194-6.265c-1.892-1.235-4.112-4.278-5.592-3.949
				c-1.48,0.329-4.704,6.423-4.402,6.297c0.302-0.126,3.826,7.602,8.349,9.411C231.352,131.545,238.297,129.324,239.101,126.528z"/>
			<g>
				<path style="fill:#421B36;" d="M229.466,121.193c-0.707,1.349-1.414,2.698-2.12,4.047c-0.549,1.048-1.368,2.114-2.691,1.55
					c-0.586-0.25-1.077-0.718-1.556-1.128c-0.522-0.448-1.028-0.914-1.515-1.399c-1.013-1.007-1.938-2.094-2.794-3.237
					c-0.466-0.622,0.582-1.225,1.043-0.609c1.378,1.84,3.028,3.683,4.901,5.033c0.405,0.292,0.764,0.424,1.108-0.013
					c0.319-0.406,0.526-0.929,0.765-1.384c0.606-1.156,1.212-2.313,1.818-3.469C228.784,119.896,229.826,120.505,229.466,121.193
					L229.466,121.193z"/>
			</g>
			<g>
				<path style="fill:#421B36;" d="M239.629,121.092c0.082,2.5-0.482,4.978-1.612,7.207c-0.351,0.693-1.393,0.083-1.042-0.609
					c1.035-2.041,1.523-4.313,1.447-6.598C238.396,120.315,239.603,120.316,239.629,121.092L239.629,121.092z"/>
			</g>
			<g>
				<path style="fill:#421B36;" d="M238.73,121.415c-2.211,1.32-4.184,2.989-5.861,4.943c-0.212,0.248-0.635,0.218-0.854,0
					c-0.245-0.245-0.213-0.606,0-0.854c1.74-2.027,3.811-3.762,6.105-5.132C238.79,119.973,239.397,121.017,238.73,121.415
					L238.73,121.415z"/>
			</g>
			<g>
				<path style="fill:#421B36;" d="M232.648,130.446c3.097,17.428,0.623,35.139-6.846,51.167c-0.328,0.704-1.369,0.091-1.042-0.609
					c7.32-15.709,9.759-33.154,6.724-50.237C231.349,130.007,232.512,129.681,232.648,130.446L232.648,130.446z"/>
			</g>
		</g>
		<g>
			<path style="fill:#421B36;" d="M217.857,119.722c0,0,0.694,13.451,0,22.612c-0.709,9.358-5.714,44.563-12.771,54.096
				l-4.828-2.554c0,0,9.658-32.018,11.717-51.702c0.989-9.455,0.26-22.809,0.26-22.809S215.289,118.045,217.857,119.722z"/>
			<path style="fill:#421B36;" d="M199.318,191.489c0,0,11.889,4.805,11.672,7.902c-0.217,3.097-23.193,40.19-28.478,42.932
				c-5.286,2.742-47.055-27.07-46.975-28.196c0.079-1.126,2.321-8.892,2.321-8.892s27.703-23.807,32.509-23.753
				C175.173,181.536,199.318,191.489,199.318,191.489z"/>
			<path style="fill:#421B36;" d="M210.138,198.66c-4.417,2.432-24.354,3.19-36.011-0.285c0,0-38.862-18.024-36.804-20.082
				c2.058-2.058,4.75-0.95,12.825,0c8.075,0.95,18.524,2.058,19.633,2.217C170.889,180.668,214.645,196.179,210.138,198.66z"/>
			<g>
				<path style="fill:#8380FF;" d="M169.62,181.092c-4.467-0.617-9.332-1.038-13.931-1.558c-3.27-0.369-6.54-0.734-9.797-1.201
					c-2.014-0.289-4.312-0.888-6.355-0.529c-0.307,0.054-0.614,0.139-0.897,0.272c-0.23,0.109-0.619,0.552-0.83,0.585
					c0.171-0.027-0.175-0.338,0.106-0.111c0.518,0.417,1.111,1.001,1.724,1.423c2.458,1.692,5.113,3.116,7.739,4.527
					c6.668,3.584,13.48,6.904,20.31,10.168c2.037,0.974,4.077,1.94,6.123,2.895c2.299,1.074,4.761,1.589,7.267,1.987
					c9.108,1.446,18.488,0.134,27.56-1.066c0.221-0.029,0.405-0.054,0.623-0.084c0.76-0.105,1.089,1.058,0.321,1.164
					c-3.147,0.435-6.306,0.8-9.468,1.117c-4.987,0.5-10.072,1.015-15.081,0.562c-3.752-0.339-7.936-0.745-11.371-2.423
					c-1.749-0.854-3.526-1.654-5.284-2.49c-7.105-3.381-14.19-6.822-21.131-10.531c-2.806-1.5-5.651-3.008-8.271-4.821
					c-0.96-0.664-3.26-2.059-1.841-3.338c1.193-1.075,2.814-1.187,4.342-1.081c2.962,0.205,5.906,0.802,8.853,1.15
					c5.96,0.703,11.929,1.334,17.892,2.01c0.573,0.065,1.146,0.127,1.717,0.206C170.707,180.033,170.381,181.197,169.62,181.092
					L169.62,181.092z"/>
			</g>
			<g>
				<path style="fill:#8380FF;" d="M139.629,205.572c11.459,10.792,24.977,19.297,39.675,24.935
					c-0.196,0.052-0.392,0.104-0.587,0.155c3.168-3.393,6.328-6.793,9.485-10.196c5.132-5.533,10.268-11.063,15.324-16.666
					c0.885-0.981,1.769-1.963,2.635-2.96c0.272-0.313,0.548-0.626,0.807-0.95c0.097-0.121,0.15-0.197,0.159-0.201
					c0.251-0.106-0.205-0.61,0.045,0.278c-0.211-0.749,0.954-1.069,1.164-0.321c0.136,0.481-0.399,0.958-0.67,1.286
					c-0.617,0.743-1.263,1.463-1.906,2.183c-2.221,2.491-4.478,4.951-6.735,7.41c-5.228,5.694-10.487,11.36-15.753,17.018
					c-1.234,1.325-2.467,2.65-3.703,3.973c-0.135,0.144-0.397,0.228-0.587,0.155c-14.899-5.716-28.59-14.304-40.208-25.246
					C138.209,205.892,139.064,205.039,139.629,205.572L139.629,205.572z"/>
			</g>
			<g>
				<path style="fill:#8380FF;" d="M179.816,230.836c0.863,3.741,1.993,7.555,1.936,11.427c-0.011,0.776-1.219,0.778-1.207,0
					c0.055-3.764-1.053-7.469-1.892-11.106C178.478,230.401,179.642,230.078,179.816,230.836L179.816,230.836z"/>
			</g>
		</g>
		<g>
			<path style="fill:#FFBFBF;" d="M185.292,164.267l15.601,6.265c0,0,2.726-10.752,5.769-11.339
				c3.043-0.587,10.788,0.256,12.347,0.866c1.558,0.61,0.952,4.97,0.164,6.215c0,0,2.507,2.777-0.433,6.173
				c0,0,0.25,3.983-2.937,4.278c0,0-0.757,4.168-3.197,3.296c-2.44-0.872-3.197-2.926-3.197-2.926s-6.592,5.541-10.804,4.245
				c-4.212-1.296-19.576-6.498-20.923-8.693L185.292,164.267z"/>
			<path style="fill:#A0D2F4;" d="M208.031,120.403c0,0,3.354,15.245,1.18,19.321c-2.539,4.76-26.225,19.051-26.225,19.051
				l13.523,9.925c0,0-4.425,15.451-10.791,14.514c-6.365-0.937-27.043-13.32-28.185-20.811s2.729-11.831,6.203-14.369
				C167.21,145.495,203.554,118.692,208.031,120.403z"/>
			<g>
				<path style="fill:#421B36;" d="M206.712,142.858c-5.623,4.342-11.44,8.426-17.432,12.243c-0.657,0.419-1.264-0.626-0.609-1.042
					c5.992-3.816,11.809-7.901,17.432-12.243C206.717,141.341,207.319,142.389,206.712,142.858L206.712,142.858z"/>
			</g>
			<g>
				<path style="fill:#421B36;" d="M187.612,162.881c-4.569-2.905-9.055-5.939-13.452-9.1c-0.625-0.449-0.023-1.497,0.609-1.042
					c4.397,3.16,8.882,6.195,13.452,9.1C188.875,162.254,188.27,163.299,187.612,162.881L187.612,162.881z"/>
			</g>
			<g>
				<path style="fill:#421B36;" d="M219.077,166.667c-2.027-1.379-4.226-2.476-6.553-3.248c-0.734-0.243-0.419-1.41,0.321-1.164
					c2.424,0.804,4.73,1.933,6.842,3.37C220.325,166.059,219.721,167.105,219.077,166.667L219.077,166.667z"/>
			</g>
			<g>
				<path style="fill:#421B36;" d="M218.295,172.906c-2.013-1.265-4.174-2.262-6.446-2.963c-0.74-0.228-0.424-1.394,0.321-1.164
					c2.367,0.731,4.637,1.767,6.734,3.085C219.56,172.275,218.955,173.32,218.295,172.906L218.295,172.906z"/>
			</g>
			<g>
				<path style="fill:#421B36;" d="M215.914,177.516c-1.88-0.839-3.76-1.678-5.641-2.517c-0.298-0.133-0.368-0.566-0.217-0.826
					c0.179-0.307,0.527-0.35,0.826-0.217c1.88,0.839,3.76,1.678,5.64,2.517c0.298,0.133,0.368,0.566,0.217,0.826
					C216.561,177.606,216.213,177.649,215.914,177.516L215.914,177.516z"/>
			</g>
			<g>
				<path style="fill:#421B36;" d="M205.7,139.305c-1.02-4.418-4.75-7.926-8.939-9.382c-0.664-0.231-0.394-1.274,0.294-1.065
					c4.932,1.496,7.977,5.419,9.108,10.319C206.232,139.478,205.77,139.606,205.7,139.305L205.7,139.305z"/>
			</g>
		</g>
		<g>
			<g>
				<g>
					<path style="fill:#FFFFFF;" d="M154.799,199.922l-18.805-13.948c0,0-25.833,6.975-35.132,6.277l13.949,18.134
						C114.811,210.385,145.38,206.821,154.799,199.922z"/>
					<g>
						<path style="fill:#421B36;" d="M154.494,200.443c-5.816-4.314-11.632-8.628-17.447-12.941c-0.347-0.258-0.903-0.53-1.173-0.87
							c-0.264-0.332,0.349-0.182,0.128-0.035c-0.291,0.194-0.872,0.23-1.206,0.318c-0.717,0.187-1.436,0.371-2.154,0.552
							c-4.937,1.247-9.9,2.4-14.896,3.391c-5.451,1.081-11.292,2.385-16.884,1.997c0.174-0.303,0.347-0.605,0.521-0.908
							c4.072,5.294,8.144,10.588,12.217,15.882c0.577,0.751,1.155,1.502,1.733,2.252c-0.174-0.1-0.348-0.199-0.521-0.299
							c10.391-1.215,21-3.027,30.941-6.325c3.032-1.006,6.134-2.171,8.743-4.055c0.631-0.456,1.234,0.591,0.609,1.042
							c-4.312,3.115-9.897,4.596-14.971,5.911c-5.779,1.498-11.658,2.609-17.552,3.54c-1.967,0.311-3.937,0.598-5.911,0.859
							c-0.74,0.098-1.789,0.482-2.38-0.064c-0.763-0.704-1.36-1.767-1.99-2.587c-1.466-1.906-2.933-3.813-4.399-5.719
							c-2.52-3.276-5.039-6.551-7.559-9.827c-0.276-0.359,0.097-0.938,0.521-0.908c4.982,0.346,10.139-0.726,15.007-1.651
							c5.217-0.992,10.398-2.18,15.55-3.467c1.335-0.333,2.665-0.686,3.998-1.026c0.671-0.171,0.93-0.015,1.473,0.388
							c3.194,2.369,6.389,4.739,9.583,7.108c2.877,2.134,5.754,4.268,8.63,6.402C155.721,199.859,155.119,200.907,154.494,200.443z"
							/>
					</g>
				</g>
				<g>
					<path style="fill:#421B36;" d="M117.088,206.035c-3.313-3.384-6.625-6.768-9.938-10.152c-0.544-0.556,0.309-1.41,0.854-0.854
						c3.313,3.384,6.625,6.768,9.938,10.152C118.485,205.736,117.632,206.591,117.088,206.035L117.088,206.035z"/>
				</g>
				<g>
					<path style="fill:#421B36;" d="M122.491,205.243c-3.497-2.94-6.748-6.161-9.721-9.63c-0.503-0.587,0.347-1.445,0.854-0.854
						c2.972,3.469,6.224,6.69,9.721,9.63C123.94,204.89,123.083,205.74,122.491,205.243L122.491,205.243z"/>
				</g>
				<g>
					<path style="fill:#421B36;" d="M127.994,204.525c-3.092-3.538-6.185-7.075-9.278-10.613c-0.509-0.583,0.341-1.44,0.854-0.854
						c3.093,3.538,6.185,7.075,9.278,10.613C129.357,204.254,128.506,205.111,127.994,204.525L127.994,204.525z"/>
				</g>
				<g>
					<path style="fill:#421B36;" d="M133.267,203.121c-3.279-3.477-6.557-6.955-9.835-10.432c-0.533-0.565,0.319-1.421,0.854-0.854
						c3.278,3.477,6.557,6.955,9.835,10.432C134.653,202.833,133.801,203.688,133.267,203.121L133.267,203.121z"/>
				</g>
				<g>
					<path style="fill:#421B36;" d="M139.051,202.188c-3.543-3.34-7.085-6.68-10.628-10.019c-0.567-0.534,0.288-1.387,0.854-0.854
						c3.543,3.34,7.085,6.68,10.628,10.019C140.472,201.868,139.617,202.721,139.051,202.188L139.051,202.188z"/>
				</g>
			</g>
			<g>
				<path style="fill:#421B36;" d="M143.934,200.165c-3.542-3.34-7.085-6.679-10.628-10.019c-0.566-0.534,0.288-1.387,0.854-0.854
					c3.542,3.34,7.085,6.68,10.628,10.019C145.354,199.845,144.499,200.698,143.934,200.165L143.934,200.165z"/>
			</g>
		</g>
		<g>
			<path style="fill:#421B36;" d="M213.882,91.555c-5.675-3.317-11.267-6.126-17.939-6.682c-3.087-0.258-6.763-0.33-9.574,1.165
				c-3.174,1.688-3.921,5.026-5.48,7.943c-1.584,2.965-4.179,5.797-7.791,5.915c-1.549,0.05-2.665-0.601-4.052-1.123
				c-2.897-1.091-6.869-2.266-9.494,0.519c-3.128,3.319-1.415,8.493,2.869,9.708c0.784,0.222,0.452,1.441-0.337,1.222
				c-4.685-1.3-7.124-6.425-4.302-10.714c1.31-1.992,3.398-3.15,5.743-3.392c1.471-0.152,2.544,0.142,3.936,0.499
				c1.517,0.389,2.447,0.915,4.183,1.286c3.548,0.757,5.927-0.657,7.844-3.873c1.671-2.805,2.29-6.181,5.014-8.254
				c2.124-1.616,4.885-2.083,7.483-2.205c7.794-0.365,16.471,2.174,22.331,7.423C214.621,91.267,214.228,91.757,213.882,91.555
				L213.882,91.555z"/>
		</g>
		<g>
			<path style="fill:#421B36;" d="M214.908,103.271c-5.48,6.028-7.462,16.326-16.834,17.56c-0.741,0.098-0.925-1.203-0.178-1.316
				c8.566-1.296,11.042-11.331,16.557-16.699C214.752,102.526,215.186,102.966,214.908,103.271L214.908,103.271z"/>
		</g>
		<path style="fill:#421B36;" d="M233.488,98.09c0.153-0.609,0.545-1.26,1.169-1.322c0.361-0.036,0.706,0.138,1.028,0.307
			c1.666,0.876,3.947,2.113,5.717,3.051c0.286,0.151,0.385,0.506,0.227,0.788c-0.646,1.153-1.892,2.196-3.121,2.442
			c-1.417,0.284-2.964-0.204-3.962-1.25C233.55,101.061,233.136,99.491,233.488,98.09z"/>
		<g>
			<path style="fill:#421B36;" d="M241.16,184.005c-11.87-0.045-23.708-1.342-35.308-3.861c-0.759-0.165-0.438-1.329,0.321-1.164
				c11.497,2.496,23.222,3.772,34.987,3.817C241.937,182.801,241.938,184.008,241.16,184.005L241.16,184.005z"/>
		</g>
		<g>
			<path style="fill:#421B36;" d="M263.377,176.23c1.383-2.307,3.064-4.467,5.364-5.924c0.445-0.282,0.821,0.399,0.407,0.696
				c-2.118,1.519-4.066,3.172-5.442,5.42C263.578,176.63,263.251,176.441,263.377,176.23L263.377,176.23z"/>
		</g>
		<g>
			<path style="fill:#421B36;" d="M262.697,178.328c-0.658,0-0.659-1.023,0-1.023C263.355,177.305,263.357,178.328,262.697,178.328
				L262.697,178.328z"/>
		</g>
		<g>
			<path style="fill:#421B36;" d="M252.562,135.182c-0.773,0.891-1.543,1.786-2.311,2.681c-0.342,0.4-0.963-0.205-0.583-0.583
				c0.834-0.83,1.667-1.661,2.496-2.496C252.423,134.526,252.797,134.912,252.562,135.182L252.562,135.182z"/>
		</g>
		<g>
			<path style="fill:#421B36;" d="M268.695,234.419c-1.186-4.608,0.884-9.759,3.717-13.346c0.419-0.531,1.36,0.184,0.946,0.73
				c-2.963,3.899-3.722,7.887-4.357,12.616C268.979,234.579,268.731,234.56,268.695,234.419L268.695,234.419z"/>
		</g>
		<g>
			<path style="fill:#421B36;" d="M268.426,233.563c-2.881-2.987-4.558-7.234-5.726-11.153c-0.232-0.777,1.012-1.12,1.214-0.335
				c1.049,4.09,2.985,7.522,4.754,11.301C268.738,233.527,268.555,233.697,268.426,233.563L268.426,233.563z"/>
		</g>
		<g>
			<path style="fill:#421B36;" d="M187.72,284.638c-2.271-0.999-4.689-1.691-7.133-2.106c-0.651-0.111-0.385-1.153,0.277-1.004
				c2.519,0.566,4.823,1.48,7.066,2.751C188.169,284.413,187.96,284.743,187.72,284.638L187.72,284.638z"/>
		</g>
	</g>
</g>
</svg>
